<?xml version="1.0" encoding="UTF-8"?>
<svg id="Layer_1" data-name="Layer 1" xmlns="http://www.w3.org/2000/svg" viewBox="0 0 97.87 114.73">
  <defs>
    <style>
      .cls-1 {
        stroke-width: 2.68px;
      }

      .cls-1, .cls-2, .cls-3 {
        fill: none;
      }

      .cls-1, .cls-2, .cls-3, .cls-4, .cls-5, .cls-6 {
        stroke: #000;
        stroke-linecap: round;
        stroke-linejoin: round;
      }

      .cls-7 {
        fill: #4cc1bb;
      }

      .cls-2, .cls-4 {
        stroke-width: 3.3px;
      }

      .cls-3 {
        stroke-width: 2.1px;
      }

      .cls-4 {
        fill: #fce000;
      }

      .cls-5 {
        fill: #fff;
        stroke-width: 1.23px;
      }

      .cls-6 {
        fill: #ff042c;
        stroke-width: 2.33px;
      }
    </style>
  </defs>
  <path class="cls-4" d="M59.15,108.72c3.44,0,6.85,1.04,9.87,3.01,1.4.91,2.83,1.34,4.49,1.34,4.61,0,8.66-4.38,8.66-9.36,0-1.3-.28-2.56-.84-3.73-.34-.71-.19-1.57.37-2.13.35-.35.82-.55,1.32-.55.28,0,.55.06.81.18,1.17.56,2.42.84,3.73.84,4.78,0,8.66-3.89,8.66-8.66,0-1.89-.6-3.68-1.73-5.19-5.13-6.84-5.41-16.99-.65-24.12l2-3-2-3c-4.75-7.13-4.48-17.27.65-24.11,1.13-1.5,1.73-3.3,1.73-5.19,0-4.78-3.89-8.66-8.66-8.66-1.3,0-2.56.28-3.73.84-.25.12-.52.18-.81.18-.5,0-.97-.19-1.33-.55-.56-.56-.71-1.42-.37-2.13.56-1.17.84-2.42.84-3.73,0-4.99-4.05-9.36-8.66-9.36-1.71,0-3.15.41-4.52,1.3-3.04,1.96-6.46,3-9.89,3-3.67,0-7.09-1.16-9.87-3.37l-.29-.23-.29.23c-2.8,2.24-6.23,3.42-9.93,3.42-3.44,0-6.85-1.04-9.87-3.01-1.4-.91-2.83-1.34-4.49-1.34-4.61,0-8.66,4.38-8.66,9.36,0,1.3.28,2.56.84,3.73.34.71.19,1.57-.37,2.13-.35.35-.82.55-1.33.55-.28,0-.55-.06-.81-.18-1.17-.56-2.42-.84-3.73-.84-4.78,0-8.66,3.89-8.66,8.66,0,1.89.6,3.68,1.73,5.19,5.13,6.84,5.41,16.99.65,24.12l-2,3,2,3c4.75,7.13,4.48,17.27-.65,24.11-1.13,1.5-1.73,3.3-1.73,5.19,0,4.78,3.89,8.66,8.66,8.66,1.3,0,2.56-.28,3.73-.84.25-.12.53-.18.81-.18.5,0,.97.19,1.32.55.56.56.71,1.42.37,2.13-.56,1.17-.84,2.42-.84,3.73,0,4.99,4.05,9.36,8.66,9.36,1.71,0,3.15-.41,4.52-1.3,3.04-1.96,6.46-3,9.89-3,3.67,0,7.09,1.16,9.87,3.37l.29.23.29-.23c2.8-2.24,6.23-3.42,9.93-3.42Z"/>
  <rect class="cls-7" x="21.36" y="21.26" width="54.6" height="71.84"/>
  <g>
    <path class="cls-2" d="M59.15,108.72c3.44,0,6.85,1.04,9.87,3.01,1.4.91,2.83,1.34,4.49,1.34,4.61,0,8.66-4.38,8.66-9.36,0-1.3-.28-2.56-.84-3.73-.34-.71-.19-1.57.37-2.13.35-.35.82-.55,1.32-.55.28,0,.55.06.81.18,1.17.56,2.42.84,3.73.84,4.78,0,8.66-3.89,8.66-8.66,0-1.89-.6-3.68-1.73-5.19-5.13-6.84-5.41-16.99-.65-24.12l2-3-2-3c-4.75-7.13-4.48-17.27.65-24.11,1.13-1.5,1.73-3.3,1.73-5.19,0-4.78-3.89-8.66-8.66-8.66-1.3,0-2.56.28-3.73.84-.25.12-.52.18-.81.18-.5,0-.97-.19-1.33-.55-.56-.56-.71-1.42-.37-2.13.56-1.17.84-2.42.84-3.73,0-4.99-4.05-9.36-8.66-9.36-1.71,0-3.15.41-4.52,1.3-3.04,1.96-6.46,3-9.89,3-3.67,0-7.09-1.16-9.87-3.37l-.29-.23-.29.23c-2.8,2.24-6.23,3.42-9.93,3.42-3.44,0-6.85-1.04-9.87-3.01-1.4-.91-2.83-1.34-4.49-1.34-4.61,0-8.66,4.38-8.66,9.36,0,1.3.28,2.56.84,3.73.34.71.19,1.57-.37,2.13-.35.35-.82.55-1.33.55-.28,0-.55-.06-.81-.18-1.17-.56-2.42-.84-3.73-.84-4.78,0-8.66,3.89-8.66,8.66,0,1.89.6,3.68,1.73,5.19,5.13,6.84,5.41,16.99.65,24.12l-2,3,2,3c4.75,7.13,4.48,17.27-.65,24.11-1.13,1.5-1.73,3.3-1.73,5.19,0,4.78,3.89,8.66,8.66,8.66,1.3,0,2.56-.28,3.73-.84.25-.12.53-.18.81-.18.5,0,.97.19,1.32.55.56.56.71,1.42.37,2.13-.56,1.17-.84,2.42-.84,3.73,0,4.99,4.05,9.36,8.66,9.36,1.71,0,3.15-.41,4.52-1.3,3.04-1.96,6.46-3,9.89-3,3.67,0,7.09,1.16,9.87,3.37l.29.23.29-.23c2.8-2.24,6.23-3.42,9.93-3.42Z"/>
    <path d="M77.03,19.68H20.85c-1.03,0-1.87.84-1.87,1.87v71.63c0,1.03.84,1.87,1.87,1.87h56.18c1.03,0,1.87-.84,1.87-1.87V21.55c0-1.03-.84-1.87-1.87-1.87ZM75.15,91.3H22.72V23.42h52.43v67.88Z"/>
  </g>
  <g>
    <path d="M49.76,41.2c-4.57.82-8.49,3.57-11.15,7.38,1.5-1.26,3.27-1.97,5.03-1.86,3.88.22,6.2,4.28,5.2,9.08-1,4.78-4.93,8.48-8.79,8.25-2.55-.15-4.43-1.96-5.13-4.54-.04,1.04-.01,2.09.1,3.16,1.11,10.21,9.52,17.13,18.76,15.48,9.26-1.68,15.87-11.29,14.73-21.48-1.11-10.2-9.52-17.11-18.76-15.46Z"/>
    <g>
      <line x1="31.33" y1="39.65" x2="34.68" y2="42.78"/>
      <path d="M34.68,44.81c-.5,0-1-.18-1.39-.55l-3.35-3.13c-.82-.77-.87-2.06-.1-2.88.77-.82,2.06-.87,2.88-.1l3.35,3.13c.82.77.87,2.06.1,2.88-.4.43-.95.65-1.49.65Z"/>
    </g>
    <g>
      <line x1="42.39" y1="37.92" x2="38.54" y2="30.13"/>
      <path d="M42.39,39.96c-.75,0-1.47-.42-1.83-1.14l-3.85-7.8c-.5-1.01-.08-2.23.93-2.73,1.01-.5,2.23-.08,2.73.93l3.85,7.8c.5,1.01.08,2.23-.93,2.73-.29.14-.6.21-.9.21Z"/>
    </g>
    <path d="M50.56,37.65c-1.13,0-2.04-.91-2.04-2.04v-4.25c0-1.13.91-2.04,2.04-2.04s2.04.91,2.04,2.04v4.25c0,1.13-.91,2.04-2.04,2.04Z"/>
  </g>
  <g>
    <path class="cls-5" d="M30.57,69.16s-3.21.78-3.43,1.36,3.18,2.11,5.26,2.28"/>
    <path class="cls-5" d="M33.78,76.82c-1.27,7.44-.48,6.35,4.69,2.41l-3.67-3.25"/>
    <path class="cls-5" d="M39.64,80.01c-.08,5.32-.92,9.71,4.57,2.3"/>
    <path class="cls-5" d="M46.3,82.48c1.04,6.02,2.1,8.44,4.87.79"/>
    <path class="cls-6" d="M34.8,75.98c-5.32,8.28-29.54,9.95-30.2-6-.1-2.77.61-7.18,3.82-8.07,10.05-2.07,10.55,15.37,23.98,10.9l2.4,3.17Z"/>
    <path class="cls-3" d="M33.48,74.84s-12.19,6.52-18.86-1.66"/>
    <path class="cls-1" d="M31.26,69.03s4.74,12.8,22.23,14.74"/>
  </g>
</svg>