<?xml version="1.0" encoding="UTF-8"?>
<svg id="Layer_1" data-name="Layer 1" xmlns="http://www.w3.org/2000/svg" viewBox="0 0 96.51 135.49">
  <defs>
    <style>
      .cls-1, .cls-2, .cls-3, .cls-4, .cls-5, .cls-6 {
        stroke: #000;
        stroke-linecap: round;
        stroke-linejoin: round;
      }

      .cls-1, .cls-2, .cls-6 {
        stroke-width: 3.39px;
      }

      .cls-1, .cls-5 {
        fill: none;
      }

      .cls-2, .cls-3 {
        fill: #4b9dd6;
      }

      .cls-3 {
        stroke-width: 4.29px;
      }

      .cls-4, .cls-5 {
        stroke-width: 1.84px;
      }

      .cls-6, .cls-7 {
        fill: #fce000;
      }
    </style>
  </defs>
  <path class="cls-6" d="M93.95,116.93c-1.6-2.56-7.37-7.69-7.37-7.69,0,0-1.81-18.54-2.45-21.43-.64-2.88-3.7-21.35-6.58-25.19s-7.89-8.2-7.89-8.2l-2.63,2.93c3.51-3.6,5.67-8.53,5.67-13.96,0-11.05-8.96-20-20-20s-20,8.96-20,20c0,3.76,1.04,7.27,2.84,10.28-.04.02-8.27,4.62-11.79,8.46-3.53,3.85-10.88,25.32-11.52,28.2-.64,2.88-1.28,16.02-1.28,16.02,0,0-3.53-.32-7.69,5.45-4.17,5.77.96,10.26,4.49,10.9,0,0-.64,5.13,1.92,6.73,2.56,1.6,8.65,3.85,8.97,2.24.32-1.6-.96-5.13-.96-5.13,0,0,39.31-4,40.94-4.68.35-.15,18.59,5.83,18.59,5.83,0,0-2.16,3.01-.24,4.29,1.92,1.28,5.13,2.24,8.01,1.6s3.53-4.17,3.53-5.13,4.17.96,5.13-1.28c.96-2.24,1.92-7.69.32-10.26ZM22.12,98.66s-.49-2.62.82-3.93c1.31-1.31,7.04-11.78,7.69-16.85,0,0,3.11,6.54,3.76,17.02l-12.27,3.76ZM62.54,95.71c1.64-1.96,4.62-17.81,4.62-17.81.65,2.13,8.64,24.52,8.64,24.52,0,0-14.89-4.74-13.25-6.71Z"/>
  <path class="cls-1" d="M67.03,57.35c-.65.67-1.34,1.29-2.08,1.86"/>
  <path class="cls-1" d="M39.39,58.32c-1.49-1.33-2.78-2.88-3.82-4.6"/>
  <path class="cls-1" d="M22.12,98.66s-.12,6.07-2.33,9.16c-2.21,3.1-3.79,5.87-3.69,8.85.13,3.63,1.62,9.96,1.62,9.96"/>
  <path class="cls-1" d="M10.97,105.89s-.03.86-.19,1.48c-.69,2.78-2.75,10.96-3.06,15.44"/>
  <path class="cls-1" d="M58.89,122s-29.99-11.13-30.12-12.89,5.7-7.6,5.7-7.6c0,0,6.51,5.16,6.92,5.16s5.29-2.17,6.11-.81,3.26,5.29,3.26,5.29l27.68,2.04"/>
  <line class="cls-1" x1="21.98" y1="111.42" x2="32.29" y2="111.42"/>
  <path class="cls-1" d="M75.79,102.42s4.67,13.47,4.67,16.86-3.26,8.41-3.26,8.41"/>
  <path class="cls-1" d="M86.58,109.24s2.37,15.25,1.92,19.23"/>
  <circle class="cls-4" cx="53.2" cy="42.18" r="5.33"/>
  <circle class="cls-7" cx="53.2" cy="42.18" r="2.44"/>
  <line class="cls-5" x1="53.16" y1="50.72" x2="53.16" y2="54.55"/>
  <line class="cls-5" x1="53.48" y1="29.41" x2="53.48" y2="33.24"/>
  <g>
    <g>
      <line class="cls-5" x1="57.67" y1="50.14" x2="58.79" y2="51.73"/>
      <line class="cls-5" x1="60.77" y1="47.17" x2="63" y2="48.77"/>
    </g>
    <line class="cls-5" x1="58.23" y1="34.1" x2="59.15" y2="32.38"/>
    <line class="cls-5" x1="61.49" y1="38.01" x2="63.84" y2="36.59"/>
    <line class="cls-5" x1="65.55" y1="42.81" x2="61.64" y2="42.77"/>
  </g>
  <g>
    <g>
      <line class="cls-5" x1="48.81" y1="50.14" x2="47.7" y2="51.73"/>
      <line class="cls-5" x1="45.72" y1="47.17" x2="43.48" y2="48.77"/>
    </g>
    <line class="cls-5" x1="48.26" y1="34.1" x2="47.34" y2="32.38"/>
    <line class="cls-5" x1="45" y1="38.01" x2="42.64" y2="36.59"/>
    <line class="cls-5" x1="40.93" y1="42.81" x2="44.84" y2="42.77"/>
  </g>
  <g>
    <g>
      <line class="cls-3" x1="79.84" y1="47.1" x2="85.37" y2="50.33"/>
      <line class="cls-3" x1="78.09" y1="36.16" x2="92.39" y2="35.51"/>
      <line class="cls-3" x1="74.79" y1="25.97" x2="79.5" y2="22.07"/>
      <line class="cls-3" x1="65.1" y1="18.54" x2="66.84" y2="13.35"/>
    </g>
    <g>
      <line class="cls-3" x1="25.89" y1="47.1" x2="20.36" y2="50.33"/>
      <line class="cls-3" x1="27.64" y1="36.16" x2="13.34" y2="35.51"/>
      <line class="cls-3" x1="30.94" y1="25.97" x2="26.23" y2="22.07"/>
      <line class="cls-3" x1="40.63" y1="18.54" x2="38.89" y2="13.35"/>
    </g>
    <line class="cls-3" x1="53.02" y1="15.54" x2="53.02" y2="2.14"/>
  </g>
  <line class="cls-2" x1="30.63" y1="77.88" x2="31.32" y2="72.8"/>
  <line class="cls-2" x1="65.32" y1="72.91" x2="67.15" y2="77.9"/>
</svg>