<?xml version="1.0" encoding="UTF-8"?>
<svg id="Layer_1" data-name="Layer 1" xmlns="http://www.w3.org/2000/svg" viewBox="0 0 166.84 166.84">
  <defs>
    <style>
      .cls-1, .cls-2, .cls-3 {
        fill: none;
      }

      .cls-2, .cls-4, .cls-5, .cls-6, .cls-3, .cls-7 {
        stroke: #000;
        stroke-linecap: round;
        stroke-linejoin: round;
      }

      .cls-2, .cls-4, .cls-7 {
        stroke-width: 3.39px;
      }

      .cls-4, .cls-5 {
        fill: #4b9dd6;
      }

      .cls-5 {
        stroke-width: 4.29px;
      }

      .cls-6, .cls-3 {
        stroke-width: 1.84px;
      }

      .cls-7, .cls-8 {
        fill: #fce000;
      }
    </style>
  </defs>
  <rect class="cls-1" width="166.84" height="166.84"/>
  <g>
    <path class="cls-7" d="M126.48,134.56c-1.6-2.56-7.37-7.69-7.37-7.69,0,0-1.81-18.54-2.45-21.43-.64-2.88-3.7-21.35-6.58-25.19s-7.89-8.2-7.89-8.2l-2.63,2.93c3.51-3.6,5.67-8.53,5.67-13.96,0-11.05-8.96-20-20-20s-20,8.96-20,20c0,3.76,1.04,7.27,2.84,10.28-.04.02-8.27,4.62-11.79,8.46-3.53,3.85-10.88,25.32-11.52,28.2-.64,2.88-1.28,16.02-1.28,16.02,0,0-3.53-.32-7.69,5.45-4.17,5.77.96,10.26,4.49,10.9,0,0-.64,5.13,1.92,6.73,2.56,1.6,8.65,3.85,8.97,2.24.32-1.6-.96-5.13-.96-5.13,0,0,39.31-4,40.94-4.68.35-.15,18.59,5.83,18.59,5.83,0,0-2.16,3.01-.24,4.29,1.92,1.28,5.13,2.24,8.01,1.6s3.53-4.17,3.53-5.13,4.17.96,5.13-1.28c.96-2.24,1.92-7.69.32-10.26ZM54.65,116.29s-.49-2.62.82-3.93c1.31-1.31,7.04-11.78,7.69-16.85,0,0,3.11,6.54,3.76,17.02l-12.27,3.76ZM95.06,113.34c1.64-1.96,4.62-17.81,4.62-17.81.65,2.13,8.64,24.52,8.64,24.52,0,0-14.89-4.74-13.25-6.71Z"/>
    <path class="cls-2" d="M99.55,74.98c-.65.67-1.34,1.29-2.08,1.86"/>
    <path class="cls-2" d="M71.91,75.95c-1.49-1.33-2.78-2.88-3.82-4.6"/>
    <path class="cls-2" d="M54.65,116.29s-.12,6.07-2.33,9.16c-2.21,3.1-3.79,5.87-3.69,8.85.13,3.63,1.62,9.96,1.62,9.96"/>
    <path class="cls-2" d="M43.49,123.52s-.03.86-.19,1.48c-.69,2.78-2.75,10.96-3.06,15.44"/>
    <path class="cls-2" d="M91.41,139.63s-29.99-11.13-30.12-12.89,5.7-7.6,5.7-7.6c0,0,6.51,5.16,6.92,5.16s5.29-2.17,6.11-.81,3.26,5.29,3.26,5.29l27.68,2.04"/>
    <line class="cls-2" x1="54.5" y1="129.05" x2="64.82" y2="129.05"/>
    <path class="cls-2" d="M108.31,120.05s4.67,13.47,4.67,16.86-3.26,8.41-3.26,8.41"/>
    <path class="cls-2" d="M119.1,126.87s2.37,15.25,1.92,19.23"/>
    <circle class="cls-6" cx="85.72" cy="59.81" r="5.33"/>
    <circle class="cls-8" cx="85.72" cy="59.81" r="2.44"/>
    <line class="cls-3" x1="85.68" y1="68.35" x2="85.68" y2="72.18"/>
    <line class="cls-3" x1="86.01" y1="47.04" x2="86.01" y2="50.87"/>
    <g>
      <g>
        <line class="cls-3" x1="90.2" y1="67.77" x2="91.31" y2="69.36"/>
        <line class="cls-3" x1="93.29" y1="64.8" x2="95.53" y2="66.4"/>
      </g>
      <line class="cls-3" x1="90.75" y1="51.73" x2="91.67" y2="50.01"/>
      <line class="cls-3" x1="94.01" y1="55.64" x2="96.37" y2="54.22"/>
      <line class="cls-3" x1="98.08" y1="60.44" x2="94.17" y2="60.4"/>
    </g>
    <g>
      <g>
        <line class="cls-3" x1="81.34" y1="67.77" x2="80.22" y2="69.36"/>
        <line class="cls-3" x1="78.24" y1="64.8" x2="76.01" y2="66.4"/>
      </g>
      <line class="cls-3" x1="80.78" y1="51.73" x2="79.86" y2="50.01"/>
      <line class="cls-3" x1="77.52" y1="55.64" x2="75.17" y2="54.22"/>
      <line class="cls-3" x1="73.46" y1="60.44" x2="77.37" y2="60.4"/>
    </g>
    <g>
      <g>
        <line class="cls-5" x1="112.37" y1="64.73" x2="117.9" y2="67.96"/>
        <line class="cls-5" x1="110.61" y1="53.79" x2="124.92" y2="53.14"/>
        <line class="cls-5" x1="107.32" y1="43.61" x2="112.03" y2="39.7"/>
        <line class="cls-5" x1="97.63" y1="36.17" x2="99.37" y2="30.98"/>
      </g>
      <g>
        <line class="cls-5" x1="58.41" y1="64.73" x2="52.88" y2="67.96"/>
        <line class="cls-5" x1="60.16" y1="53.79" x2="45.86" y2="53.14"/>
        <line class="cls-5" x1="63.46" y1="43.61" x2="58.75" y2="39.7"/>
        <line class="cls-5" x1="73.15" y1="36.17" x2="71.41" y2="30.98"/>
      </g>
      <line class="cls-5" x1="85.55" y1="33.17" x2="85.55" y2="19.77"/>
    </g>
    <line class="cls-4" x1="63.15" y1="95.51" x2="63.85" y2="90.43"/>
    <line class="cls-4" x1="97.85" y1="90.54" x2="99.67" y2="95.53"/>
  </g>
</svg>