<?xml version="1.0" encoding="UTF-8"?>
<svg xmlns="http://www.w3.org/2000/svg" version="1.1" viewBox="0 0 841.9 800.6">
  <defs>
    <style>
      .cls-1, .cls-2, .cls-3 {
        fill: none;
      }

      .cls-1, .cls-2, .cls-3, .cls-4, .cls-5, .cls-6 {
        stroke: #000;
      }

      .cls-1, .cls-2, .cls-3, .cls-4, .cls-5, .cls-6, .cls-7 {
        stroke-linecap: round;
        stroke-linejoin: round;
      }

      .cls-1, .cls-6 {
        stroke-width: 23.7px;
      }

      .cls-2 {
        stroke-width: 23px;
      }

      .cls-3 {
        stroke-width: 18px;
      }

      .cls-4 {
        stroke-width: 10.5px;
      }

      .cls-4, .cls-7 {
        fill: #fff;
      }

      .cls-5 {
        fill: #ff042c;
        stroke-width: 20px;
      }

      .cls-6 {
        fill: #f7931a;
      }

      .cls-7 {
        stroke: #fff;
        stroke-width: 70px;
      }
    </style>
  </defs>
  <!-- Generator: Adobe Illustrator 28.6.0, SVG Export Plug-In . SVG Version: 1.2.0 Build 709)  -->
  <g>
    <g id="Layer_3">
      <g>
        <path class="cls-7" d="M272.4,510.1s24.8-212.2,51.6-274.7c0,0-32.7-4-36.7-17.8-4-13.9,16.9-75.4,16.9-75.4,100,28.7,68.5,42.5,92.2-54.5l70.4,10.9-14.4,76.1s43.1,15.4,58,13.4l17.8-80.3,73.6,11.2s-6.4,50.3-22.3,78.1c156.8-7.5,205,228-78.1,200.8,132.8-7.8,314,222.2-4.5,236.5l-17.8,91.5c-82.6,19.9-72.1-51.5-55.8-93.7l-64.7-13.4-17.8,82.6c-85.4,16.3-66.1-76.3-57.5-111.8,0,0-69.2-9.2-78.1-25,0,0,5-52.6,12.9-68.4l54.3,14.1Z"/>
        <path class="cls-7" d="M360.7,353.5s-27.8,5.9-29.7,10.9c-2,5,26.8,18.8,44.6,20.8"/>
        <path class="cls-7" d="M386.5,419.9c-12.7,63.6-5.6,54.4,39.7,21.8l-30.7-28.8"/>
        <path class="cls-7" d="M436,448.7c-2,45.6-10.2,83.1,38.7,20.8"/>
        <path class="cls-7" d="M492.6,471.5c7.5,51.9,16.1,73,41.6,7.9"/>
        <g>
          <path class="cls-7" d="M448.9,334.6s41.6-71.4,89.2-74.4"/>
          <line class="cls-7" x1="448.9" y1="246.4" x2="515.4" y2="316.8"/>
        </g>
        <path class="cls-7" d="M395.4,413c-47.6,69.8-255.9,78.5-257.8-58.5-.2-23.8,6.9-61.5,34.7-68.4,86.7-15.4,86.9,134.4,203.3,99.2l19.8,27.8Z"/>
        <path class="cls-7" d="M384.3,402.9s-106.2,53.1-161.5-18.7"/>
        <path class="cls-7" d="M366.6,352.5s33.7,132.9,186.4,124"/>
        <g>
          <line class="cls-7" x1="124.8" y1="273.7" x2="98.7" y2="243.3"/>
          <line class="cls-7" x1="152.6" y1="256.5" x2="148.1" y2="227.2"/>
          <line class="cls-7" x1="187.3" y1="251.6" x2="191.7" y2="237.3"/>
          <line class="cls-7" x1="111.1" y1="300.8" x2="82.4" y2="297.4"/>
          <line class="cls-7" x1="107.2" y1="335.6" x2="93.8" y2="337.6"/>
        </g>
      </g>
      <g>
        <path class="cls-6" d="M272.4,510.1s24.8-212.2,51.6-274.7c0,0-32.7-4-36.7-17.8-4-13.9,16.9-75.4,16.9-75.4,100,28.7,68.5,42.5,92.2-54.5l70.4,10.9-14.4,76.1s43.1,15.4,58,13.4l17.8-80.3,73.6,11.2s-6.4,50.3-22.3,78.1c156.8-7.5,205,228-78.1,200.8,132.8-7.8,314,222.2-4.5,236.5l-17.8,91.5c-82.6,19.9-72.1-51.5-55.8-93.7l-64.7-13.4-17.8,82.6c-85.4,16.3-66.1-76.3-57.5-111.8,0,0-69.2-9.2-78.1-25,0,0,5-52.6,12.9-68.4l54.3,14.1Z"/>
        <path class="cls-4" d="M360.7,353.5s-27.8,5.9-29.7,10.9c-2,5,26.8,18.8,44.6,20.8"/>
        <path class="cls-4" d="M386.5,419.9c-12.7,63.6-5.6,54.4,39.7,21.8l-30.7-28.8"/>
        <path class="cls-4" d="M436,448.7c-2,45.6-10.2,83.1,38.7,20.8"/>
        <path class="cls-4" d="M492.6,471.5c7.5,51.9,16.1,73,41.6,7.9"/>
        <g>
          <path class="cls-1" d="M448.9,334.6s41.6-71.4,89.2-74.4"/>
          <line class="cls-1" x1="448.9" y1="246.4" x2="515.4" y2="316.8"/>
        </g>
        <path class="cls-5" d="M395.4,413c-47.6,69.8-255.9,78.5-257.8-58.5-.2-23.8,6.9-61.5,34.7-68.4,86.7-15.4,86.9,134.4,203.3,99.2l19.8,27.8Z"/>
        <path class="cls-3" d="M384.3,402.9s-106.2,53.1-161.5-18.7"/>
        <path class="cls-2" d="M366.6,352.5s33.7,132.9,186.4,124"/>
        <g>
          <line class="cls-2" x1="124.8" y1="273.7" x2="98.7" y2="243.3"/>
          <line class="cls-2" x1="152.6" y1="256.5" x2="148.1" y2="227.2"/>
          <line class="cls-2" x1="187.3" y1="251.6" x2="191.7" y2="237.3"/>
          <line class="cls-2" x1="111.1" y1="300.8" x2="82.4" y2="297.4"/>
          <line class="cls-2" x1="107.2" y1="335.6" x2="93.8" y2="337.6"/>
        </g>
      </g>
    </g>
  </g>
</svg>