<?xml version="1.0" encoding="UTF-8"?>
<svg id="Layer_1" data-name="Layer 1" xmlns="http://www.w3.org/2000/svg" viewBox="0 0 166.84 166.84">
  <defs>
    <style>
      .cls-1, .cls-2, .cls-3, .cls-4, .cls-5, .cls-6, .cls-7, .cls-8, .cls-9 {
        fill: none;
      }

      .cls-2, .cls-10, .cls-3, .cls-4, .cls-11, .cls-6, .cls-7, .cls-12, .cls-8, .cls-9 {
        stroke-linecap: round;
        stroke-linejoin: round;
      }

      .cls-2, .cls-11 {
        stroke-width: 3.03px;
      }

      .cls-2, .cls-11, .cls-5, .cls-12, .cls-13, .cls-9 {
        stroke: #000;
      }

      .cls-10 {
        fill: #f69222;
      }

      .cls-10, .cls-6 {
        stroke: #231f20;
        stroke-width: 3.28px;
      }

      .cls-3 {
        stroke-width: 1.96px;
      }

      .cls-3, .cls-4, .cls-7, .cls-8 {
        stroke: #fff;
      }

      .cls-4 {
        stroke-width: 2px;
      }

      .cls-11 {
        fill: #eb1f33;
      }

      .cls-5 {
        stroke-width: 1.37px;
      }

      .cls-5, .cls-13 {
        stroke-miterlimit: 10;
      }

      .cls-7 {
        stroke-width: 2.02px;
      }

      .cls-12 {
        fill: #fce000;
        stroke-width: 2.78px;
      }

      .cls-8 {
        stroke-width: 3.03px;
      }

      .cls-13 {
        fill: #fff;
        stroke-width: .92px;
      }

      .cls-9 {
        stroke-width: 1.51px;
      }
    </style>
  </defs>
  <rect class="cls-1" width="166.84" height="166.84"/>
  <g>
    <g>
      <rect x="82.11" y="64.63" width="23.12" height="13.33"/>
      <path class="cls-13" d="M85.81,69.29s0,4.25.8,5.18,7.31,2.39,10.37,1.86,7.31-2.92,7.31-5.58l-3.59-5.18-13.03.53s-2.13,3.46-1.86,3.19Z"/>
      <path class="cls-11" d="M75.3,86.44s5.98,26.32,21.4,27.52,25.39-3.99,32.43-12.5c7.05-8.51,16.31-21.98,18.06-23.55,0,0-32.42-5.56-36.01-4.89s-35.89,13.43-35.89,13.43Z"/>
      <path class="cls-11" d="M93.91,75.4s-7.44-4.39-16.88,2.39-19.11,16.95-23.93,19.67c-3.99,2.26-6.11,2.92-10.5,3.59s-13.03,4.25-14.22,11.17c-1.2,6.91,6.91,11.17,20.6,13.96,13.69,2.79,28.05,1.73,37.09-5.72s12.5-15.82,15.29-21.27c2.79-5.45,6.25-11.03,13.03-15.55,6.78-4.52,10.63-4.65,10.63-4.65,0,0-14.09-1.46-19.54-6.38,0,0-8.24-.27-11.56,2.79Z"/>
      <path class="cls-11" d="M78.37,76.79c-.37.3-7.09-10.98-2.64-23.08,4.46-12.1,13.21-10.98,14.8-10.51s2.23,3.18,4.3,2.87,2.39,0,7.16-2.55,10.19-3.82,15.6-1.91,12.58,9.55,18.78,20.22c6.21,10.67,10.82,16.08,10.82,16.08,0,0-31.52,7.32-47.44-10.51,0,0-4.46,4.46-10.35,0,0,0-6.02,1.81-6.97,7.22,0,0-2.51.9-4.08,2.17Z"/>
      <path class="cls-11" d="M93.91,75.4c-10.77,5.72-15.55,19.81-15.55,19.81"/>
      <path class="cls-5" d="M93.91,75.4c-.27-.66-.27-5.85-.27-5.85"/>
      <path class="cls-9" d="M104.55,63.57s.93-3.99,4.25-8.24"/>
      <path class="cls-9" d="M104.02,57.99s1.2-4.65,2.92-6.38"/>
      <path class="cls-9" d="M86.74,62.38s-1.06-3.72-1.2-6.91"/>
      <path class="cls-9" d="M83.15,58.52c-.13-.4-1.46-3.06-1.73-6.25"/>
      <g>
        <g>
          <path class="cls-10" d="M59.99,94.64l-13.1-4.52c-4.77-1.65-10.01.91-11.66,5.67-1.65,4.77.91,10.01,5.67,11.66l13.1,4.52"/>
          <path class="cls-10" d="M54.01,111.97l13.1,4.52c4.77,1.65,10.01-.91,11.66-5.67,1.65-4.77-.91-10.01-5.67-11.66l-13.1-4.52"/>
        </g>
        <g>
          <line class="cls-8" x1="48.53" y1="104.67" x2="63.06" y2="109.69"/>
          <g>
            <line class="cls-7" x1="46.53" y1="101.76" x2="49.29" y2="102.72"/>
            <line class="cls-4" x1="47.42" y1="99.16" x2="50.13" y2="100.1"/>
          </g>
          <g>
            <line class="cls-3" x1="65.1" y1="108.18" x2="67.81" y2="109.11"/>
            <line class="cls-3" x1="66.17" y1="105.64" x2="68.88" y2="106.58"/>
          </g>
          <path class="cls-8" d="M47.75,107.03s1.8-9,6.01-9.16c3.86-.14,3.25,4.63,1.74,8.52,0,0,2.22-6.98,5.98-7.51,2.89-.41,7.95,2.47,1.31,13.35"/>
        </g>
        <g>
          <path class="cls-6" d="M59.99,94.64l-13.1-4.52c-4.77-1.65-10.01.91-11.66,5.67-1.65,4.77.91,10.01,5.67,11.66l13.1,4.52"/>
          <path class="cls-6" d="M54.01,111.97l13.1,4.52c4.77,1.65,10.01-.91,11.66-5.67,1.65-4.77-.91-10.01-5.67-11.66l-13.1-4.52"/>
        </g>
      </g>
      <line class="cls-2" x1="41.1" y1="84.12" x2="40.42" y2="74.55"/>
      <line class="cls-2" x1="47.22" y1="84.49" x2="49.34" y2="79.81"/>
      <line class="cls-2" x1="35.8" y1="86" x2="33.24" y2="81.55"/>
      <path class="cls-2" d="M31.53,89.76c-.51-.17-8.54-4.27-8.54-4.27"/>
      <line class="cls-2" x1="29.65" y1="94.88" x2="25.72" y2="94.2"/>
      <line class="cls-2" x1="29.31" y1="100.69" x2="21.62" y2="104.45"/>
    </g>
    <path class="cls-12" d="M62.36,62.26s-.92.38-1.07-.39c-.18-.93-.15-13.47-.15-13.47l-11.53,21.81s-.56,1.1.7.71c1.26-.39,6.46-1.98,6.46-1.98l.71,13.66,11.64-22.3-6.77,1.96Z"/>
  </g>
</svg>