<?xml version="1.0" encoding="UTF-8"?>
<svg id="Layer_1" data-name="Layer 1" xmlns="http://www.w3.org/2000/svg" viewBox="0 0 166.84 166.84">
  <defs>
    <style>
      .cls-1, .cls-2, .cls-3, .cls-4 {
        fill: none;
      }

      .cls-2 {
        stroke-width: 2.86px;
      }

      .cls-2, .cls-3, .cls-5, .cls-6, .cls-7, .cls-4, .cls-8 {
        stroke: #000;
        stroke-linecap: round;
        stroke-linejoin: round;
      }

      .cls-3 {
        stroke-width: 5.28px;
      }

      .cls-5 {
        fill: #504f51;
      }

      .cls-5, .cls-8 {
        stroke-width: 5.19px;
      }

      .cls-6 {
        fill: #ed1f33;
        stroke-width: 2.49px;
      }

      .cls-7 {
        fill: #ff9100;
        stroke-width: 1.31px;
      }

      .cls-4 {
        stroke-width: 2.24px;
      }

      .cls-8 {
        fill: #fff;
      }

      .cls-9 {
        fill: red;
      }

      .cls-10 {
        fill: #faff21;
      }

      .cls-11 {
        fill: #ffec00;
      }
    </style>
  </defs>
  <rect class="cls-1" width="166.84" height="166.84"/>
  <g>
    <g>
      <path class="cls-5" d="M73.38,66.03s2.39-8.17,6.18-9.75c3.79-1.58,8.01.76,12.91,5.68,4.9,4.92-5.2,12.89-5.2,12.89l-13.89-8.82Z"/>
      <circle class="cls-8" cx="69.44" cy="87.53" r="27.53"/>
      <path d="M59.2,102.4c8.31,3.13,17.66-1.26,20.87-9.8,3.22-8.54-.92-18-9.23-21.13-4.28-1.61-8.83-1.22-12.68.7.48.03.95.12,1.4.3,2.97,1.18,4.11,5.31,2.56,9.21-1.56,3.91-5.22,6.12-8.19,4.93-2.46-.98-3.66-3.99-3.11-7.22-.31.6-.61,1.22-.85,1.87-3.22,8.54.92,18,9.23,21.13Z"/>
      <path class="cls-3" d="M88.64,58.13s3.67-7.64,9.1-7.58c8.98.1,4.55,13.54,17.53,14.15"/>
      <g>
        <path class="cls-11" d="M105.82,80.35s7.75-7.91,9.85-7.57,6.18,10.94,6.18,10.94c0,0,.38-11.86,2.27-12.64s13.03,4.38,13.03,4.38c0,0-9.46-7.54-8.62-9.79s9.16-7.72,9.16-7.72c0,0-9.96,3.67-10.67,1.85s5.31-12.3,5.31-12.3l-9.61,9.7-4.01-11.48-1.05,13.37-12.15-4.14,7.76,7.77-11.35,2.21s8.09,1.06,9.17,3.87c1.08,2.82-5.27,11.54-5.27,11.54Z"/>
        <path class="cls-9" d="M108.8,77.36s6.16-6.29,7.83-6.02,4.91,8.69,4.91,8.69c0,0,.3-9.43,1.81-10.04,1.51-.61,10.35,3.48,10.35,3.48,0,0-7.52-6-6.85-7.78s7.28-6.14,7.28-6.14c0,0-7.92,2.92-8.48,1.47-.57-1.44,4.22-9.78,4.22-9.78l-7.64,7.71-3.18-9.13-.84,10.63-9.66-3.29,6.17,6.17-9.02,1.76s6.43.84,7.29,3.08-4.19,9.18-4.19,9.18Z"/>
        <path class="cls-10" d="M113.87,71.09s2.22-3.09,1.85-4.09-3.51-2.31-3.51-2.31c0,0,4.53.15,4.49-.56s-2.94-3.63-2.94-3.63c0,0,4.44,1.98,5.1,1.43s1.39-4.09,1.39-4.09l1.32,3.8,4-4.51s-2.42,5.42-1.24,5.45,3.2-.41,3.2-.41c0,0-3.21,2.19-2.53,3.3.67,1.11,2.59,3.46,2.59,3.46,0,0-4.65-1.95-5.36-1.15s-1.47,5.61-1.47,5.61c0,0-.61-4.29-2.21-4.56s-4.68,2.26-4.68,2.26Z"/>
      </g>
    </g>
    <g>
      <path class="cls-7" d="M81.7,99.24s2.28,2.7,2.1,3.34-4.07-.18-5.98-1.35"/>
      <path class="cls-7" d="M74.11,103.82c-3.6,7.23-3.59,5.78-5.57-.87l5.22-.49"/>
      <path class="cls-7" d="M67.04,102.87c-3.28,4.64-5.33,8.96-5.39-.9"/>
      <path class="cls-7" d="M59.74,100.81c-4.69,4.54-7.14,5.96-4.7-2.39"/>
      <path class="cls-6" d="M73.76,102.46c-.63,10.5,19.21,27.21,29.83,13.88,1.83-2.33,4-6.58,1.79-9.38-7.36-8.13-18.79,6.6-27.56-5.72l-4.07,1.22Z"/>
      <path class="cls-4" d="M75.61,102.3s6.41,13.31,17.32,10.46"/>
      <path class="cls-2" d="M81.19,98.69s-13.44,10.51-27.79-2"/>
      <g>
        <line class="cls-2" x1="110.99" y1="109.36" x2="115.87" y2="108.35"/>
        <line class="cls-2" x1="109.57" y1="105.55" x2="112.24" y2="103"/>
        <line class="cls-2" x1="106.52" y1="102.42" x2="107.17" y2="100.68"/>
        <line class="cls-2" x1="110.28" y1="113.06" x2="113.36" y2="114.93"/>
        <line class="cls-2" x1="108.01" y1="116.79" x2="109.17" y2="118.01"/>
      </g>
    </g>
  </g>
</svg>