<?xml version="1.0" encoding="UTF-8"?>
<svg xmlns="http://www.w3.org/2000/svg" viewBox="0 0 143.51 66.55">
  <defs>
    <style>
      .cls-1 {
        fill: #21af0c;
      }

      .cls-2 {
        fill: #76d8ff;
        mix-blend-mode: multiply;
      }

      .cls-3 {
        fill: #ff9100;
        stroke-width: .33px;
      }

      .cls-3, .cls-4, .cls-5, .cls-6, .cls-7, .cls-8, .cls-9, .cls-10 {
        stroke: #000;
        stroke-linecap: round;
        stroke-linejoin: round;
      }

      .cls-4 {
        fill: #c4c4c2;
        stroke-width: .78px;
      }

      .cls-11 {
        isolation: isolate;
      }

      .cls-5 {
        fill: #504f51;
      }

      .cls-5, .cls-10 {
        stroke-width: 1.31px;
      }

      .cls-12 {
        fill: #17e4ff;
      }

      .cls-6 {
        fill: #ed1f33;
        stroke-width: .63px;
      }

      .cls-7 {
        stroke-width: .72px;
      }

      .cls-7, .cls-8, .cls-9 {
        fill: none;
      }

      .cls-8 {
        stroke-width: .57px;
      }

      .cls-9 {
        stroke-width: 1.33px;
      }

      .cls-13 {
        fill: red;
      }

      .cls-10 {
        fill: #fff;
      }

      .cls-14 {
        fill: #faff21;
      }

      .cls-15 {
        fill: #ffec00;
      }
    </style>
  </defs>
  <g class="cls-11">
    <g id="Layer_1" data-name="Layer 1">
      <g>
        <path d="M143.51,61.97c-12.91,1.42-25.81,2.84-38.72,4.26-11.44,1.26-21.79-1.53-32.99-3.77-11.16-2.23-21.6-5.01-33-3.98-12.93,1.16-25.86,2.32-38.8,3.49,8.59-14.79,17.19-29.58,25.78-44.38,8.61-.77,17.97-2.8,26.5-1.09,7.51,1.5,15.02,3,22.53,4.51,7.22,1.44,14.93,3.92,22.31,4.01,9.77.13,20.21-2.23,29.93-3.3,5.49,13.42,10.98,26.83,16.46,40.25Z"/>
        <path class="cls-12" d="M139.14,60.08c-12.65,1.39-25.29,2.91-37.95,4.18-9.73.97-19.6-2.21-29.13-4.12-10.95-2.19-21.41-5.1-32.6-4.09-11.52,1.03-23.04,2.07-34.56,3.11,7.35-13.1,14.71-26.2,22.06-39.3,8.88-.8,17.81-2.49,26.62-.73,7.54,1.51,15.09,3.02,22.63,4.52,7.32,1.46,15.23,4.11,22.67,3.54,8.9-.68,17.79-1.96,26.66-2.93,4.53,11.94,9.07,23.88,13.6,35.82Z"/>
        <g>
          <path class="cls-1" d="M82.93,52.01c-.24-.2-.49-.11-.66-.39-.11-.18-.13-.36-.03-.5.18-.26.39-.44.42-.77.04-.38.16-.58.79-.66.47-.06.81-.14,1.16-.33.15-.08.3-.28.55-.24.1.18.14.46.18.63.03.12,0,.66-.29.32-.03.27.08.56-.07.8-.12.2-.32.38-.52.55-.18.14-.95,1.08-1.52.62,0,0,0-.01,0-.02Z"/>
          <path class="cls-1" d="M73.28,51.84c-.56-.22-.24-.56-.44-.86-.1-.15-.17-.32-.31-.46-.15-.15-.36-.26-.44-.43-.17-.35.03-.66-.07-1.01-.06-.18-.34-.35-.49-.52-.16-.19-.18-.39-.23-.58-.04-.18-.14-.37-.12-.55.02-.21.18-.41.27-.6.15-.32.67-.49.5-.91-.08-.19-.28-.38-.31-.57-.04-.19.09-.31-.08-.51-.25-.31-.84-.68-.93-1-.11-.38.45-.6.11-1.02-.17-.21-.31-.22-.64-.33-.38-.12-.48-.26-.72-.48-.43-.39-1.09-.34-1.68-.32-.4.01-.82,0-1.24-.09-.3-.06-.53-.17-.83-.23-.33-.06-.66-.06-.99-.12-.58-.1-.47-.18-.59-.49-.16-.4-.77-.62-1.18-.97-.38-.33-1.09-.66-1.1-1.04,0-.23.13-.25.31-.4.15-.12.15-.3.31-.43.21-.18.24-.4.17-.65-.03-.11-.17-.21-.1-.32.04-.06.28-.16.37-.22.22-.16.33-.4.59-.54.23-.12.53-.07.78-.18.06-.03.09-.04.15-.07.31-.16.88-.08,1.11-.31.13-.13.03-.31.21-.42.13-.08.4-.1.55-.16.37-.15.67-.41,1.21-.3.25.05.37.19.6.24.25.06.49,0,.72-.02.49-.04.89-.1,1.43-.01.54.09,1.03.19,1.53.33.3.09.58.04.67.25.04.08-.07.16-.03.23.05.09.2.15.28.23.15.16.13.27.35.41.22.14.5.23.74.37.47.27.53.51,1.19.54.14,0,.19.05.3,0,.11-.04,0-.14.15-.17.15-.03.66.1.83.15.26.07.5.2.74.29.25.09.52.14.8.2.56.11,1.15.29,1.69.38.65.1.68-.24.71-.55.01-.16.06-.31.1-.45.07-.2.02-.25-.39-.32-.53-.09-1.05-.13-1.58-.24-.61-.12-.74-.42-.79-.75-.03-.23.17-.08.49-.08.22,0,.4-.08.63-.07.28.01.54.11.81.18.27.07.52.07.78.12.57.1,1.05.42,1.53.29.62-.16-.17-.48-.56-.71-.35-.2-.85-.57-1.29-.6-.28-.02-.49.1-.72-.08-.08-.07-.01-.12-.1-.19-.05-.04-.29-.13-.36-.15-.34-.08-.87.23-1.01.4-.18.22.81.84-.19.59-.36-.09-.85-.36-1.17-.2-.22.11-.06.23.02.39.06.11.19.27-.17.16.03.14.2.4-.2.3-.34-.08-.27-.3-.35-.45-.07-.14-.26-.25-.34-.38-.11-.17-.04-.34-.16-.51-.21-.31-.76-.58-1.11-.83-.18-.13-1.08-.77-1.05-.31.02.26.65.55.89.76.15.13.17.2.39.32.17.09.49.16.5.31-.42-.07-.38-.08-.38.15,0,.18-.05.23-.28.3-.2.06-.34.15-.58.07-.11-.03-.5-.27-.45-.35.09-.15.52.1.7.06.23-.06.21-.24.08-.37-.26-.27-.76-.52-1.08-.76-.27-.2-.91-.57-1.25-.51-.26.05-.23.16-.62.07-.24-.06-.49-.23-.65-.09-.16.13-.01.28-.29.38-.21.08-.46.06-.66.15-.37.17-.56.42-1.12.41-.19,0-.69-.02-.79-.14-.07.02-.11.03-.18.04-.1-.47-.85-.17-.98-.57-.1-.32.23-.52.35-.78.08-.16,0-.3.3-.36.21-.04.55.02.79.08.49.11,1.16.45,1.26.05.1-.38-.44-.53-.7-.83-.41-.47.81-.09,1.03-.11.45-.04.88-.17,1.29-.26.46-.1.68-.35,1.24-.25.63.11.46,0,.43-.31-.01-.18.32-.49.66-.38.02.17.12.29.04.44-.07.15-.21.23.14.39.2.09.45.11.66.17.31.08.4-.02.71,0,.54.03,1.14.5,1.19,0,.02-.15-.05-.38.26-.37.24,0,.39.2.65.23.06-.15-.21-.32.1-.35.23-.02.57.13.78.15.26.02.34-.11.05-.23-.22-.1-.58-.03-.79-.04-.44-.02-1.21-.13-1.06-.53.06-.18.96-.41.76-.6-.21-.2-.58-.07-.7,0-.17.09-.38.09-.56.17-.15.07-.25.24-.23.37.03.2.14.2-.09.34-.16.09-.44.18-.54.31-.1.12,0,.24-.19.33-.13.06-.47.09-.61-.01-.19-.14-.02-.36-.1-.52-.22-.4-.57-.5-1.09-.47-.32.02-.42.02-.57-.22-.09-.13-.23-.35-.21-.48.03-.17.22-.19.45-.21.3-.03.46-.04.71-.12.39-.12.79-.2,1.16-.34.35-.13.72-.38,1.17-.4.42-.02.94.02,1.37.05.45.03,1.02.07,1.41.3.2.12.28.19.54.27.25.08.51.13.76.22.27.09,1.09.39,1.18.61.18.44-.95.02-1.1.14-.18.16.19.26.41.32.32.09.33.03.57-.04.21-.05.46,0,.6-.12.14-.12-.02-.3.27-.34.38-.05.34.17.52.32.23.19.44.07.67.02.52-.12.97.03,1.56.11.46.06,1.08-.04,1.51.21.21.12.34.33.61.38.41.07.07-.11-.02-.25-.18-.27.11-.68.55-.57.47.12.68.45.92.72.13.16.29.34.28.49,0,.14-.21.24-.03.43.25.25.42.08.46-.06.04-.16-.02-.28-.13-.44-.18-.23-.48-.43-.45-.67.36-.02.63.26.98.33.12.03.43.06.46,0,.04-.11-.27-.22-.22-.38.11,0,.22.02.33.04.2.02.29.03.49.06.04-.06.01-.13-.03-.2.48.02.86,0,1.39.1.21.03.5.1.7.1.21,0,.31-.11.51-.12.46-.02,1.04.31,1.5.48.23.08.5.15.71.24.36.16.24.18.02.28-.11.05-.24.07-.19.2.4.19,1.06.22,1.49.3.53.11.96,0,1.47,0,.47,0,.94-.21,1.39-.21.25,0,.49.06.75.06.26,0,.46.05.71.09.36.06.63,0,1-.07.38-.08.84-.02.91-.33.51-.08,1.1-.18,1.6-.22.3-.02.48.07.77.09.27.03.51-.03.78-.07.27-.04.56-.06.83-.09.33-.04.55-.06.81-.01.47.09.92.03,1.42,0,.43-.02.85,0,1.27,0,.23,0,1.11.06.83-.18.7-.11,1.29-.03,1.97-.04.27,0,1.82-.05,1.84.06.15.02.22.02.37.04.34.08.75-.03,1.1.02.11.02.33.05.4.13.1.11-.03.17.03.3-.26.06-1.36-.14-1.52.08-.18.24,1.36.21.34.46-.25.06-.52.11-.68.26-.14.13-.12.27-.38.36-.22.08-.65.04-.85.13-.21.1-.06.25.11.34.39.21.84.17.89.56.02.16-.09.31,0,.48.04.08.31.34.19.41-.15.09-1.39-.31-1.55-.38-.34-.14-.91-.35-1.02-.6-.07-.17.1-.28.1-.45,0-.16.04-.31.03-.46-.03-.29-.25-.1-.49-.02-.11.04-.25.05-.38.06-.11,0-.31-.03-.39-.02-.64.13.59.49-.18.68-.27.07-.49-.02-.72-.07-.25-.05-.43-.03-.69-.02-.33.01-.38.07-.64.15-.25.08-.4.07-.62.2-.29.18-.53.56-.2.72.28.13.42.03.72.02.23,0,.4.06.6.12.19.05.49.11.63.21.15.1.2.24.33.36.25.21.53.28.49.58-.03.25-.04.52-.11.77-.03.09-.02.29-.09.35-.14.15-.31.08-.54.08-.68,0-.28.32-.29.56-.76.16.35.57.55.67.17.09.44.23.38.4-.06.16-.46.18-.53.28-.06,0-.08-.01-.14-.02-.15-.19-.18-.38-.47-.52-.32-.16-.63,0-.92-.1-.14-.05-.12-.19-.28-.23-.1-.02-.46.04-.56.06-.41.09-.59.21-.63-.15-.48.03-.26.64.24.58.21-.02.46-.2.72-.11.34.11.04.2-.04.33-.21.32.58.47.82.71.29.29.53.46.59.83.05.33-.12.72-.45,1.02-.26.24-.55.57-1.02.67-.25.05-.47.05-.71.12-.35.09-.34.21-.57.34-.46.24-1.08-.1-1.43.3-.06.07-.11.19-.1.21,0,.03-.01.05-.02.08.04.24.79.45,1.09.59.38.18.78.54.59.87-.09.16-.39.27-.57.4-.19.14-.3.29-.44.44-.5.5-.37-.19-.65-.34-.23-.12-.52-.15-.77-.21-.23-.06-.38-.27-.66-.23-.08.23-.16.59,0,.79.16.21.57.33.81.51.15.11.23.17.42.25.17.07.35.12.44.23.09.11.07.27.14.39.07.11.37.24.19.33-.18.09-.93-.22-1.03-.28-.04-.06-.05-.09-.09-.15-.39-.22-.51-.41-.86-.62-.18-.11-.32-.16-.42-.3-.12-.17-.15-.34-.18-.54-.04-.34.03-.61-.33-.88-.07-.05-.21-.08-.29-.13-.08-.05-.09-.16-.16-.2-.22-.11-.27.01-.45.14-.11.08-.15.18-.32.16,0,0-.4-.33-.58-.49-.24-.21-.41-.43-.63-.65-.19-.19-.61-.29-.94-.17-.23.09-.33.15-.58.22-.23.06-.48.1-.64.23-.15.12-.15.26-.27.39-.14.15-.38.25-.6.37-.4.21-.83.57-.78.84.05.27.25.69.1.96-.08.16-.45.2-.5.35-.04.12-.77-.17-.9-.46-.17-.4-.21-.8-.48-1.2-.26-.39-.81-.9-.88-1.27-.04-.17.03-.49-.36-.63-.24-.09-.32.03-.37.14-.21-.02-.57-.23-.72-.35-.21-.17-.13-.3-.31-.47-.26-.25-.66-.51-1.12-.62-.6-.15-1.14,0-1.73-.19-.23-.07-.49-.18-.71-.26-.31-.11-.31-.14-.53-.31-.38-.3-.95-.27-1.37-.55-.21-.14-.45-.35-.61-.51-.13-.14-.17-.28-.38-.4-.7-.4-.69.2-.58.49.08.22.33.26.6.4.38.2.23.31.44.51.32.32,1.18.37,1.43.19.17-.12.21-.19.47.01.14.11.27.25.44.38.14.11.44.28.46.4.03.14-.18.11-.27.18-.09.07-.06.12-.1.2-.15.33-.61.41-1.06.58-.51.19-.75.39-1.43.37-.49-.01-1.08.1-1.58,0-.77-.14-.47-.53-.52-.82-.05-.29-.47-.63-.81-.88-.22-.16-.37-.21-.44-.4-.07-.18-.06-.34-.17-.53-.18-.32-.48-.64-.82-.93-.33-.29-.41-.49-.62-.79-.19-.26-.21-.18-.52-.18-.29,0-.36-.1-.57-.29-.31.06.03.7.11.87.16.36.06.67.54,1.03.19.14.42.18.58.37.15.18.1.31.13.48.04.22.19.25.38.45.13.14.13.3.26.45.13.15.38.25.53.39.16.15.19.28.42.4.1.33.38.67.98.81.55.13,1.07.05,1.55,0,.19-.02.53-.02.77.08.28.12.09.24.04.39-.2.53-.56,1.24-1.43,1.44-.54.12-.92.36-1.43.51-.24.07-.49.14-.69.24-.2.1-.24.21-.36.35-.1.12-.29.21-.24.38.02.07.18.13.17.21,0,.12-.14.07-.2.13-.09.12-.02.29.1.44.21.26.27.26.19.5-.11.33.08.71-.32.95-.2.12-.49.09-.77.14-.31.06-.54.19-.78.3-.19.09-.46.19-.5.34-.05.17.24.32.27.49.06.41-.74.32-1.17.37-.01,0-.01.02,0,.04-.19.09-.02.27-.03.41-.01.14-.12.3-.28.39-.38.21-.82.3-1.36.4-.47.08-1,.23-1.6.12-.38-.06-.5-.14-.85-.13-.27.01-.49.02-.81-.05-.07-.1-.1-.15-.16-.25Z"/>
          <path class="cls-1" d="M96.17,46.37c.16.01.31.24.38.32.11.13-.02.25-.19.39-.12.1-.33.29-.55.24-.22-.05-.12-.31,0-.42.08-.07.21-.14.25-.22.05-.1,0-.2.11-.29,0,0,0-.01,0-.02Z"/>
          <path class="cls-1" d="M106.68,47.62c-.05-.06-.13-.17-.15-.24-.02-.09.07-.16.05-.26-.03-.17.18-.25.45-.33.28-.08.36-.25.58-.37.11-.06.26-.07.38-.11.11-.04.26-.26.36-.31.22-.09.52-.41.72-.52.2-.11.3.19.57.15.12-.02.3-.04.39.01.12.07,0,.13-.09.19-.08.06-.15.12-.22.18-.12.11-.07.11.04.21.1.08.05.14.09.23.04.08.16.11.24.17.08.07.07.12-.08.18-.17.06-.23.05-.27.18-.03.08-.03.16-.08.25-.06.11-.18.21-.23.32-.04.08.04.16,0,.23-.03.06-.18.14-.28.17-.06.02-.13.03-.18.05-.06.03-.07.06-.14.08-.16.04-.19-.04-.34-.05-.29-.02-.53.12-.8.15-.2.02-.63-.07-.47-.22,0,0-.4-.21-.53-.36Z"/>
          <path class="cls-1" d="M101.28,46.58c-.14-.19.31-.31.58-.25.27.06.4.19.61.29.22.1.51.11.69.26.17.14.4.21.62.32.41.2.86.36,1.25.57.12.07.17.13.22.22.06.09.13.13.24.2.2.11.09.35-.11.48-.32.22-.57,0-.78-.12-.16-.09-.3-.19-.44-.3-.14-.11-.33-.16-.52-.23-.63-.22-.86-.68-1.35-.98-.16-.1-.33-.15-.51-.23-.14-.06-.27-.16-.43-.19-.02-.02-.04-.03-.06-.04Z"/>
          <path class="cls-1" d="M109.1,49.01c-.11-.01-.27.06-.39.07-.15.02-.29,0-.44.02-.3.02-.61.05-.91.06-.3,0-.58-.02-.87-.04-.26-.01-.6.02-.78-.08-.11-.06-.13-.11-.07-.2.07-.1.16-.09.35-.1.13,0,.29-.02.4,0,.12.03.19.09.33.09.14,0,.31-.03.45-.03.24,0,.2-.06.36-.13.28-.12.57.02.83.03.09,0,.21-.04.29-.02.07.02.06.08.12.12.13.08.36.04.41.15-.03.02-.05.03-.08.05Z"/>
          <path class="cls-1" d="M110.52,47.77c-.11-.05-.25-.03-.24-.15,0-.08.13-.13.17-.2.05-.07,0-.15,0-.23,0-.08.02-.17.04-.25.02-.13.13-.31.34-.4.26-.12.55-.07.84-.1.15-.02.29-.04.42-.08.07-.03.26-.15.35-.14.17.02.07.15.03.2-.05.06-.09.13-.14.18-.13.14-.53.14-.76.16-.22.01-.79,0-.65.21.02.03.04.07.12.07.1,0,.06-.07.13-.09.09-.03.25.03.37.01.1-.01.27-.09.37-.08.17.02.13.13.04.19-.16.1-.63.13-.44.28.04.03.1.05.13.08.03.03.02.08.05.11.07.06.21.06.25.15.06.13-.08.1-.25.14-.14.03-.2.14-.33.15-.08-.09-.15-.49-.44-.41,0,.12.21.18.18.31-.02.09.03.32-.22.27-.25-.04-.17-.29-.34-.37Z"/>
          <path class="cls-1" d="M106.34,42.94c.14.23-1.02.16-.64-.11.08-.06.17-.05.28-.07.08-.02.16-.08.23-.08.32-.04.04.21.09.25.02,0,.02,0,.04.02Z"/>
          <path class="cls-1" d="M108.79,41.8c.06.1.22.4.5.21.15-.11.08-.31.09-.43,0-.14.14-.29.13-.43-.03-.24-.38-.09-.47.06-.1.17-.24.59-.24.59Z"/>
          <path class="cls-1" d="M111.94,44.7c-.02.07-.15.15-.27.17-.16.02-.19-.05-.32-.06-.15,0-.44.2-.44.3,0,.07.06.16.21.11.03-.01.06-.08.1-.1.04-.02.14-.04.19-.05.35-.04.3.14.5.23.13.06.57.19.6.04.01-.07-.15-.13-.11-.19.06-.09.19-.03.18-.15-.02-.13-.18-.29-.28-.41-.04-.05-.11-.12-.24-.09-.12.03-.08.13-.09.19-.01,0-.02,0-.03.01Z"/>
          <path class="cls-1" d="M110.33,43.68c-.08.15-.48.02-.62-.01-.22-.06-.32-.19-.33-.33.5-.12-.48-.75.39-.6.11.02.27,0,.37.05.11.05.07.13.13.2.05.08.09.08.08.17,0,.08-.03.16-.04.23,0,.06-.04.18.03.23.09.07.23.02.36,0,.34-.05.46.09.54.24-.15,0-.28-.08-.44-.08-.08,0-.46-.09-.46-.09Z"/>
          <path class="cls-1" d="M112.11,49.06c-.26-.12.11-.3.4-.4.19-.06.56-.22.79-.2.43.05-.21.22-.3.26-.24.13-.4.27-.73.32-.07.01-.1.04-.17.01Z"/>
          <path class="cls-1" d="M109.87,43.97s.56.28.51.06c-.02-.08-.36-.21-.49-.12,0,.03-.01.04-.02.06Z"/>
          <path class="cls-1" d="M111.34,43.96c.03.07.48.26.46.09-.01-.16-.31-.2-.48-.09"/>
          <path class="cls-1" d="M110.8,44.2c.31.05.08.36-.09.35-.17-.01-.12-.42.05-.34"/>
          <path class="cls-1" d="M111.3,44.24c.31.05-.03.47-.19.46-.17,0-.12-.42.05-.34"/>
          <path class="cls-1" d="M111.86,44.4c.02-.11-.48-.29-.38-.09,0,0,.35.24.38.09Z"/>
          <path class="cls-1" d="M115.62,54.35c.22.03.31-.15.46-.22.17-.09.23-.2.47-.25.03.07.07.16.03.23-.04.08-.17.1-.21.16-.09.16.1.24.21.4.07.1,0,.14.17.22.09.04.36.09.46.11.13.03.28.07.44.07.26,0,.24-.07.41-.12.57-.16,1.27-.16,1.82-.36.56-.21.77-.55,1.04-.85.31-.34.68-.75,1.1-1.04.4-.28.64-.63.71-.97.08-.4-.46-.65-.88-.96-.4-.29-.97-.35-1.32-.65-.15-.13-.04-.21-.09-.37-.05-.17-.2-.39-.37-.55-.15-.13-.43-.15-.55-.29-.09-.1-.13-.61-.4-.44-.18.11-.28.59-.32.73-.07.24,0,.32-.16.55-.13.19-.05.29-.4.27-.31-.02-.6-.08-.85-.17-.27-.1-.78-.03-.8-.24-.01-.21.68-.58.45-.65-.22-.07-.89-.03-1.19-.05-.47-.03-.33.1-.57.3-.2.17-.4.08-.6.2-.12.08-.25.35-.21.44-.23.06-.49.14-.72.1-.39-.07-.4-.16-.8.04-.22.11-.5.26-.59.4-.12.2,0,.26-.38.36-.1.03-.21,0-.33.05-.17.07-.16.16-.22.25-.1.17-.12.26-.41.38-.5.2-1.07.29-1.57.51-.51.23-1.01.36-1.09.72-.04.17,0,.34-.1.51-.06.09-.18.09-.17.2,0,.1.17.11.25.19.24.24.28.71.12.96-.16.24-.66.71.25.53.58-.11,1.1-.26,1.71-.37.6-.1,1.03-.37,1.56-.55.97-.33,2.19-.71,3.05-.18.14.09.37.35.58.37Z"/>
          <path class="cls-1" d="M118.74,48.09c-.07.02-.33-.16-.46-.18-.11-.02-.3-.02-.41.03-.12.05-.15.17-.35.09-.14-.05-.06-.12-.02-.2.18-.36-.57-.53-1.11-.55-.17,0-.28-.03-.42-.06-.17-.04-.19-.05-.34.02-.17.07-.19.07-.34-.02-.11-.06-.24-.13-.14-.22.06-.06.41-.09.43-.13.04-.06-.35-.02-.41-.02-.13-.02-.15-.11-.3-.12-.13,0-.33.1-.35-.03-.03-.14.41-.15.56-.19.11-.03.19-.07.31-.09.18-.03.18,0,.3.06.07.03.15.06.19.1.05.05.08.11.13.16.1.1.14.24.4.23.06-.16.27-.23.44-.35.18-.12.48-.15.77-.14.58.01,1.11.17,1.67.2.3.02.59.06.85.15.16.05.11.1.18.18.08.09.18.08.34.08.14,0,.27,0,.37.06.05.02.11.06.1.1-.02.05-.14.05-.16.08-.06.08.1.14.19.19.12.06.15.12.24.18.11.07.25.02.38.06.1.03.23.12.31.17.35.2-.22.12-.43.14-.35.03-.64.04-.93-.08-.27-.1-.35-.31-.74-.32-.29,0-.37.08-.48.21-.14.15-.29.12-.52.2-.1,0-.14,0-.24,0Z"/>
          <path class="cls-1" d="M121.57,47.13c.34-.02.78-.09.96-.27.09-.09.25-.33.03-.37-.27-.05-.37.26-.59.33-.18.06-.68.09-.72.21.13.04.19.06.32.09Z"/>
          <path class="cls-1" d="M117.55,56.16c-.2-.21-.08-.45.12-.67.17-.18.14-.11.49-.09.25.01.43-.03.69-.05.25.23-.12.27-.41.41-.26.12-.32.31-.65.38-.09.01-.14.02-.23.03Z"/>
          <path class="cls-1" d="M109.08,34.96c-.08-.07-.2-.24.01-.26.15-.01.25.13.32.19.21.16.47.24.7.38.22.13.62.27.77.42.08.08.07.17.16.26.08.08.24.11.27.23-.22.04-.44-.08-.63-.14-.3-.1-.28-.14-.46-.31-.24-.22-.7-.44-1.02-.61-.05-.07-.08-.1-.13-.16Z"/>
          <path class="cls-1" d="M111.86,37.26c-.15-.11-.49-.17-.44-.36.02-.08.16-.09.15-.22,0-.08-.19-.16-.05-.23.14-.08.67.09.83.1.27.03.63-.02.65.21-.06.03-.15.07-.18.12-.02.04,0,.17-.04.19-.18.1-.47-.08-.66-.09-.01.08.02.15-.06.2-.07.03-.11.05-.18.08Z"/>
          <path class="cls-1" d="M111.06,39.11c-.07-.05-.33-.03-.38-.08-.08-.08.09-.22.18-.29.13-.1.21-.13.39-.19.14-.04.44-.05.55-.12.14-.08.1-.19.25-.27.17-.09.28-.02.33-.2.06-.22-.24-.4-.23-.61.56-.18.62.21.74.45.12.24.49.47.47.76-.3.02-.51.15-.82.14-.04.1.04.22-.14.27-.26.07-.27-.08-.43-.14-.27-.09-.7-.01-.84.12-.03.06-.04.09-.07.15Z"/>
          <path class="cls-1" d="M110.89,39.75c-.06-.16-.57-.29-.4-.46.23-.23.55.12.87.07.09.14-.26.54-.46.4,0,0,0-.01,0-.02Z"/>
          <path class="cls-1" d="M125.02,56.06c-.23-.1-1.19.12-.91-.24.13-.17.8-.31,1.08-.42.37-.14.7-.31,1.08-.45.43-.16.82-.32,1.16-.53.13-.08.17-.17.41-.18.03.05.04.12.03.17.1-.01.18-.02.28-.04.13.17-.39.34-.6.45-.31.16-.6.33-.9.49-.29.15-.73.17-.98.33-.21.14-.31.28-.6.38-.02.01-.03.02-.05.04Z"/>
          <path class="cls-1" d="M128.62,54.43c-.15-.09.13-.19.15-.28.02-.12-.29-.21-.27-.28.04-.11.44-.09.53-.18.08-.07-.06-.28-.08-.36-.05-.15-.22-.6.23-.57.22.02.39.12.37.23,0,.05-.13.12-.13.14,0,.09.06.06.15.11.03.02.11.06.14.07.07.04,0,.09.13.12.13.03.44-.05.6-.06.21.26-.73.33-.86.46-.11.11.03.18-.19.3-.16.08-.36.15-.52.23-.1.03-.15.04-.24.07Z"/>
          <path class="cls-1" d="M67.23,31.24c.27-.07.73-.04.86-.25.03-.06.03-.11.08-.16.06-.05.14-.02.16-.1.04-.14-.21-.22-.39-.2-.16.01-.26.1-.39.13-.2.05-.43-.04-.62,0-.12.03-.22.16-.16.27.06.12.34.15.32.26,0,0,0,0,0,.01.06.01.09.02.14.03Z"/>
          <path class="cls-1" d="M66,28.31c.26-.07,1.12.12,1.25-.08.03-.05-.01-.17.04-.22.05-.05-.22-.14-.2-.22.04-.15-.2-.21-.38-.2-.15.01-.26.1-.39.13-.19.05-.42-.03-.61.01-.12.03-.74.07-.68.18.06.12.32.16.31.25,0,0,.52.1.51.1.06.01.08.02.14.03Z"/>
          <path class="cls-1" d="M68.13,31.57c.06-.17.18-.14.33-.23.11-.07.06-.22.1-.32.04-.09.19-.15.17-.26-.01-.12-.18-.18-.25-.29-.15-.22.03-.53.31-.63.12-.04.4-.08.52.02.17.12.01.21-.13.22.09.14.4.11.42.26.01.08-.09.07-.12.12-.04.07-.02.04-.02.13,0,.08.06.07,0,.14-.04.06-.15.03-.15.13,0,.09.19.2.28.26.08.06.12.03.15.12.02.07-.09.09-.07.15.02.09.35.25.14.31-.1.03-.44-.09-.56-.09-.18,0-.3.08-.48.08-.14,0-.44-.09-.52-.05-.05-.03-.08-.05-.13-.09Z"/>
          <path class="cls-1" d="M58.47,27.52c.15.39.84.26,1.13.13.17-.07.27-.17.47-.22.2-.05.43-.07.63-.12.2-.05.31-.14.48-.22.17-.08.37-.06.59-.05.43.03.85.14,1.23.04.45-.12.82-.12,1.36-.03.28.05,1.09.21,1.26.03.09-.09-.09-.22.16-.24.19-.01.38.17.49.05.11-.11-.2-.23-.11-.33.1-.11.41.02.57.04.39.05.44-.13.5-.33.21-.01.29-.06.34-.19.06-.16.08-.22.36-.26.34-.05.73,0,1.05-.06.09-.02.38-.06.35-.15-.03-.09-.4-.13-.51-.15-.51-.09-1.04-.06-1.56-.18-.95-.22-1.78-.64-2.74-.83-.61-.12-1.25-.21-1.86-.21-.6,0-1.18-.09-1.78-.16-.29-.04-.54-.03-.85-.1-.3-.06-.56-.07-.86-.07-.42,0-.85.06-1.25.02-.29-.03-1.04-.15-.59.21.24.19.61.23.94.32.23.06.45.19.61.32.26.2.04.18-.02.34-.07.19.22.17.36.27.24.18-.16.1-.31.1-.04.12-.02.19-.19.23-.15.04-.28.02-.42.09-.27.14-.37.34-.45.57-.07.18-.06,1.17.45,1.12.07,0,.1,0,.17,0Z"/>
          <path class="cls-1" d="M53.11,23.18c.17-.02.36.15.52.19.18.05.37.05.56.08.33.06.79.29,1.13.27.13,0,.34-.12.5-.14.19-.02.4,0,.6,0,.26,0,.5.02.78.07.25.04.35-.01.59-.03.39-.03.82.08,1.22.1.4.02.79-.01,1.19,0,.17-.17-.79-.27-.94-.31-.5-.12-.99-.19-1.5-.26-.79-.11-1.59-.39-2.37-.47-.2-.02-.95-.13-.67.12.13.11.91.21.63.4-.16.1-.78.02-1,0-.35-.02-.68-.04-1.03-.04-.08,0-.12,0-.2,0Z"/>
          <path class="cls-1" d="M54.94,23.08c-.12-.1-.31-.17-.44-.27-.14-.1-.35-.16-.56-.16-.13,0-.25.02-.38.02-.11,0-.21,0-.31-.02-.09,0-.52-.14-.56-.08-.03.06.27.27.35.3.16.06.4.12.58.13.2.02.39,0,.59.04.1.01.19.02.29.04.08.02.18.06.27.07.04,0,.09,0,.12-.01.02-.02.03-.03.06-.06Z"/>
          <path class="cls-1" d="M52.62,25.2c-.1-.05-.25-.1-.38-.13-.15-.04-.22,0-.36.02-.38.08-.02.23.24.28.32.06.55.09.74.28.17.16.31.33.56.46.09.05.34.18.46.16.18-.03,0-.17.02-.23.01-.07.16-.03.25,0,.16.05.26.07.4,0,.25-.13.16-.25.11-.45-.02-.09.09-.16.24-.12.16.04.14.18.27.25.32.18,1.07-.02.58-.24-.21-.09-.5-.15-.58-.31-.06-.14.02-.15.17-.22.3-.14-.42-.48-.64-.57-.15-.06-.3-.11-.47-.15-.22-.04-.38-.11-.61-.11-.12,0-.35.04-.41-.05-.06-.09.02-.16-.15-.22-.18-.06-.33.03-.48.06-.14.03-.28.04-.43.03-.03-.08,0-.15.11-.2.11-.05.16-.08-.03-.13-.22-.06-.56.03-.73.09-.12.04-.24.12-.17.22.08.11.3.17.45.21.32.08.65.16.98.18.11,0,.26,0,.37.04.04.02.03.04.09.06.06.02.09,0,.15,0,.27,0,.31.22.4.35.15.19.14.38-.17.46-.13.03-.24.04-.34.1-.11.05-.16.06-.32.03-.03,0-.06-.01-.09-.02-.09-.04-.14-.05-.23-.09Z"/>
          <path class="cls-1" d="M54.17,24.09c-.09-.02-.24-.07-.27-.14-.03-.07.06-.12.16-.12.18,0,.36.11.52.16.07.02.19.03.25.07.09.06.06.11-.04.12-.08,0-.19-.03-.27-.04-.1,0-.22.04-.31.02-.01-.03-.02-.04-.04-.07Z"/>
          <path class="cls-1" d="M51.84,23.41c-.21-.06-.44-.08-.64-.15-.04-.01-.19-.08-.22-.08-.04,0-.05.04-.09.05-.04.01-.09.01-.13.01-.11,0-.42.07-.3.17.1.09.38.04.51.05.18.02.26.07.44.05.12-.01.3-.01.37-.08.02-.01.04-.02.06-.03Z"/>
          <path class="cls-1" d="M53.75,23.81c.07-.07.41,0,.54-.02.08-.02.21-.08.19-.15-.02-.07-.18-.1-.27-.11-.13-.02-.26-.02-.39-.03-.19-.01-.35-.05-.52-.11-.21-.07-.49-.14-.66-.24-.11-.07-.2-.12-.34-.05-.13.06-.16.12-.33.15.11.17.58.23.84.28.15.03.33.05.47.1.14.04.24.13.38.16.04.01.05.02.09.03Z"/>
          <path class="cls-1" d="M49.19,23.38c.2.08.49.07.68,0,.1-.03.15-.07.23-.12.06-.03.2-.07.19-.13-.01-.07-.2-.09-.3-.09-.17-.01-.32-.01-.47-.06-.14-.05-.17-.06-.29.02-.1.07-.14.08-.3.07-.17-.01-.17.03-.09.14.07.09.2.17.36.19,0-.01,0-.02-.02-.03Z"/>
          <path class="cls-1" d="M50.34,22.79s.17.12.23.14c.09.02.16.02.25,0,.1-.02.17-.02.28-.01.09,0,.21.03.18-.07-.03-.13-.34-.17-.5-.16-.08,0-.15.03-.22.04-.09.01-.18,0-.27.02.02.02.03.02.05.04Z"/>
          <path class="cls-1" d="M49.52,24.94c.03-.08.26-.08.36-.1.13-.03.15-.07.24-.12.18-.1.4,0,.46.12.05.09.12.13.19.21.04.05.11.2,0,.21-.11.02-.21-.1-.29-.14-.09-.05-.18-.07-.3-.04-.15.03-.24.05-.41.01-.13-.02-.33-.04-.26-.15,0,0,0,0,0,0Z"/>
          <path class="cls-1" d="M48.78,22.68c.08,0,.62.06.46-.07-.03-.02-.1-.02-.13-.04-.07-.04-.03-.03-.04-.07-.03-.07-.06-.1-.2-.12-.13-.02-.22.03-.34.03-.13,0-.23-.04-.32-.09-.17-.11-.36-.16-.61-.09-.2.06-.61.08-.68.24-.06.15.22.1.39.08.26-.03.51-.07.75,0,.22.06.56.17.8.16-.03,0-.04-.01-.07-.02Z"/>
          <path class="cls-1" d="M47.39,23.65c.18-.05.44-.14.59-.19.25-.08-.09-.22.02-.34.05-.06.16-.07.2-.14.04-.07-.02-.14-.15-.16-.2-.03-.61.33-.76.21-.06-.05,0-.1-.17-.08-.09.01-.23.08-.32.08-.1,0-.09-.07-.21-.07-.08,0-.2.05-.27.05-.09-.01-.03-.09-.03-.14,0-.09-.08-.09-.22-.08-.12,0-.23.01-.34,0-.1,0-.17-.02-.27-.02-.24,0-.51.1-.76.14-.33.06-.62.27-.93.35-.09.02-.31.09-.29.17,0,.02.14.04.17.04.12,0,.21-.05.33-.09.17-.05.35-.05.53-.09.12-.03.37-.11.47-.09.09.02.03.04-.04.09.03.01.06.04.09.04.03,0,.14,0,.15.01.05.07-.21.11-.28.12-.12.02-.2.04-.16.12.03.07.1.07-.07.15.04.04.17.02.24.04.09.03.04.08.12.1.1.02.28-.06.39-.09.15-.04.28-.06.43-.09.29-.06.56-.15.83-.13.14,0,.4-.03.47.06.09.02.13.02.22.04Z"/>
          <path class="cls-1" d="M54.09,28.93c-.35-.01-.38-.24-.15-.33.08-.03.28-.04.26-.13-.03-.13-.25-.05-.33-.02-.31.13-.52.34-.92.38-.17.02-.33,0-.46.06-.13.06-.19.13-.03.19.1.04.3.09.42.08.14,0,.25-.06.41-.04.11.02.27.08.37.12.12.05.19.13.3.18.37.16.32-.07.4-.19.04-.06.08-.16.14-.21.06-.06.24-.09,0-.14-.09-.02-.17.01-.26,0-.06,0-.09.01-.14.02Z"/>
          <path class="cls-1" d="M45.68,29.34c-.24.04-.45.12-.7.13-.06-.09.02-.23.18-.33.21-.13.36-.14.59-.17.16-.2.21-.32-.11-.35-.16-.02-.54-.05-.57-.15-.03-.08.09-.2.04-.29-.04-.07-.17-.09-.28-.11-.24-.06-.56.09-.84.2-.15.06-.3.15-.46.2-.15.05-.29.05-.44.09-.09.02-.35.07-.35.15,0,.09.25.06.34.04.29-.05.57-.13.86-.14.13,0,.24.02.37.02.13,0,.26-.02.37-.02.05,0,.09,0,.13.01,0,.1-.23.09-.33.1-.14.01-.26.03-.4.07-.36.08-.4.18-.65.36-.24.17-.4.27-.54.47-.1.14-.2.4.18.23.14-.06.28-.19.4-.26.14-.09.27-.19.38-.28.2-.17.43-.33.73-.41.12-.04.27-.07.24.03-.02.07-.2.16-.29.22-.17.12-.08.08-.02.16.05.07-.01.14-.13.23-.15.1-.4.2-.3.3.09.08.34.07.52.03.2-.04.41-.12.6-.2.18-.08.3-.17.46-.25,0-.02,0-.04,0-.06Z"/>
          <path class="cls-1" d="M39.72,38.99c.22-.18.31-.27.38-.47.09-.25.31-.84-.46-.57-.29.1-.34.2-.65.17-.22-.02-.45-.1-.63-.16-.19-.06-.44-.14-.54-.25-.11-.13-.02-.27-.11-.4-.2-.28-.49-.32-.98-.39-.46-.07-.59-.36-1.15-.3-.62.07-1.15.03-1.57-.15-.22-.1-.26-.18-.57-.21-.25-.03-.51-.04-.7-.12-.47-.19-.15-.44-.06-.79.1-.36-.56-.44-.58-.78-.02-.32-.16-.62-.17-.96,0-.15-.12-.36-.41-.08-.2.19,0,.36.05.5.07.2-.01.43-.04.65-.02.17.04.3-.12.49-.19,0-.35-.22-.44-.3-.16-.14-.07-.25-.11-.42-.04-.16-.16-.21-.1-.41.02-.07.09-.17.06-.23-.02-.06-.17-.08-.19-.14-.11-.32.49-.65.14-.92-.27-.21-.29-.4-.26-.74.03-.31.58-.69.98-1,.26-.2.35-.34.68-.49.28-.13.51-.2.73-.39.21-.19.36-.39.58-.57.33-.29.37-.1.74-.24.62-.23-.09-.58-.15-.74-.09-.24.32-.64.34-.95.02-.27.11-.64-.12-.84-.21-.18-.7-.28-1.13-.24-.54.05-1.11.41-1.59.4.03-.1.19-.2.31-.28-.25,0-.91.27-1.18.37-.39.14-.73.36-1.13.49-.4.13-.85.2-1.28.35-.37.14-.98.52-1.3.46.08-.24.69-.28.95-.38.24-.09.93-.4.98-.57-.17.02-.3,0-.44,0,.05-.12.34-.3.22-.38-.32.19-.81.15-.37-.1.3-.17.83-.38,1.16-.44.18-.03.33-.02.51-.06.17-.04.35-.13.52-.18.35-.11.67-.1.99-.23-.11-.14-.32-.16-.61-.11-.18.03-.72.14-.27-.11.47-.26,1.1-.09,1.55-.29.34-.15.01-.22.2-.39.19-.18.73-.32.98-.37.57-.12,1.2-.16,1.73-.17.52-.01,1.16-.09,1.72-.17.36-.05.65-.02,1.01-.07.3-.04.57-.14.85-.12.54.05,1.18-.05,1.77-.04.3,0,.54.03.87-.01.35-.05.71-.12,1.06-.16.35-.04.75-.09.99.01.26.1.32.2.72.17.62-.04,1.28-.2,1.87-.21.28,0,.47.1.71.1.26,0,.55-.09.82-.16.55-.13.89.16,1.41.05.43-.09.64-.54,1.22-.25-.14.03-.26.1-.2.21.2.03.41.1.31.24.08.01.13.06.19.08-.2.18.04.26.32.24.18-.01,1.43-.36,1.03.01-.33.3-.81.03-1.24.04-.5.01-1.03.1-1.5.19-.28.05-.52.12-.81.12-.31,0-.62.05-.94.16-.41.15-1.35.35-1.41.66-.02.08.08.12.05.21-.02.08-.16.14-.18.23-.05.21.22.15.51.13.46-.02.88.11,1.23.22.31.1.21.11.03.36-.1.14-.22.37-.17.49.24-.11.5-.24.73-.28.34-.06.42-.16.68-.29.24-.11.56-.11.83-.19.13-.04.3-.09.36-.17.06-.07-.02-.17.05-.23.1-.09.47-.14.64-.21.15-.07.44-.3.62-.31.38-.02.94.31,1.13.51.14.14.02.28.16.41.15.14.53.13.73.1.89-.1.53.34.52.68-.02.34.65.55.6.87-.05.36-.65.2-1.13.25-.27.03-.53.08-.8.06-.27-.02-.53-.1-.8-.16-.31-.07-1.46-.41-1.45-.03.27.06,1.12.12,1.19.32.04.11-.24.21-.31.3-.13.18,0,.19.17.32.45.35-.26.21-.66.2-.48-.02-.74-.09-.52-.38-.29,0-.56.02-.84.06-.3.04-.55.11-.83.2-.32.1-.62.14-.97.29-.74.32-1.49.7-1.98,1.15-.26.24-.64.47-1.02.65-.44.21-.74.42-1.15.66-.33.2-.58.31-.72.56-.11.21-.04.37-.17.58-.33.5-1.13.58-1.02.09.07-.34.47-.78-.26-.77-.3,0-.57.08-.87.14-.39.08-.45.11-.78.27-.55.26-.82,0-1.37.13-.39.1-1.26.45-1.51.66-.18.15-.34.38-.5.54-.17.18-.34.35-.41.54-.08.19-.06.35-.08.52-.02.14-.18.42-.02.5.3.15,1.36-.08,1.75-.3,0-.02.01-.02.02-.04.25-.3.29-.48.86-.57.34-.05.97-.23.72.12-.06.08-.27.22-.36.31-.11.1-.19.23-.32.33-.23.18-.72.39-.75.62.37.04,1.13-.15,1.41-.04.29.11-.07.59-.18.83-.12.25.01.54.41.59.35.04,1.18-.37,1.24-.04.06.05.09.07.16.12.1-.08.24-.11.35-.18.15-.1.17-.17.27-.29.14-.16.32-.25.6-.34.46-.14.95-.23,1.38-.4-.02.15-.33.19-.35.36.2.03.09.18.03.3.28,0,.28-.24.49-.36.29-.17.45-.12.71-.06.18.04.38.14.59.15.26.02.6-.07.86-.12.26-.04.54-.08.75-.02.21.06.22.19.38.28.13.08.34.11.49.19.19.1.18.19.28.32.18.23.97.17,1.39.35.49.21.54.54.72.84.09.15.07.28.13.42.05.12.34.32.51.41.45.26,1.06.23,1.47.56.41.32.92.44,1.49.64.58.2.86.4,1.19.72.21.2.3.23.24.45-.05.16-.04.35-.24.45-.19.1-.49.13-.69.22-.24.11-.29.25-.46.38-.35.27-.54.47-.62.83-.03.16,0,.35-.1.5-.11.18-.32.18-.61.26-.23.07-.33.23-.56.28-.27.07-.6-.06-.9-.1-.49-.06-1.21.08-1.42.29-.13.14.02.32-.06.46-.07.12-.33.29-.51.35-.11.04-.27.03-.38.07-.18.06-.2.13-.29.26-.14.18-.3.34-.49.52-.21.2-.26.29-.69.32-.32.02-.63,0-.97.05-1.07.13.42.39-.05.76-.25.19-.78.2-1.11.33-.31.13-.38.31-.72.41-.2.06-.35,0-.5.14-.08.08-.04.22,0,.27.14.2.36.17.07.46.03.04.05.07.08.11-.15.11-.43.13-.57.23-.53.35.8.23.91.38.18.27-.87.56-.63.86.2.26.55.44,1.05.55.2.04.68.11.3.28-.21.09-.78.07-1.02.09.03,0,.05,0,.08,0-.22-.09-.5-.03-.65-.2-.19-.21-.1-.19-.58-.14-.76.08-.87-.42-1.05-.71-.22-.37-.32-.78-.42-1.17-.1-.39-.66-.5-.71-.87-.06-.46-.03-.87.18-1.38.25-.58.11-1.06.36-1.64.22-.51.46-1,.56-1.5.07-.34-.33-.77-.78-.92-.35-.12-.88-.18-1.15-.37-.31-.21-.22-.62-.38-.89-.11-.19-.31-.23-.51-.37-.15-.1-.19-.3-.26-.43-.06-.1-.26-.27-.15-.4.14-.16.41-.19.49-.39.1-.25.01-.34.27-.6.26-.27.21-.38.73-.51.06-.07.01-.06-.04-.07.18-.16.28-.24.46-.4Z"/>
          <path class="cls-1" d="M39.91,34.67c-.33-.05.02-.25.26-.31.23-.06.5-.06.72-.08.24-.02.51-.08.71-.04.2.04.32.15.51.2.18.05,1.19.2.79.45-.15.09-.54.07-.71.09-.36.04-.44.12-.44-.09,0-.25-.24-.26-.61-.31-.11-.02-.28-.09-.38-.09-.22,0-.37.15-.58.14-.11.02-.16.02-.26.04Z"/>
          <path class="cls-1" d="M43.07,35.32c-.08,0-.26-.04-.24-.1.03-.1.16-.07.28-.11.42-.11.27-.12.39-.33.05-.08-.08-.04.12-.1.15-.04.23,0,.33.02.22.04,1.07.06.97.27-.08.17-.4.11-.61.15-.16.03-.18.06-.3.11-.14.05-.75.11-.95.09Z"/>
        </g>
        <path class="cls-2" d="M97.21,66.55c-17.46-.8-33.95-7.51-51.35-8.25,3.84-13.45,8.14-27.26,12.24-40.64,5.87,1.17,12.21,2.31,18.39,3.69,6.25,1.4,12.35,3.03,18.16,3.62.99,14.02,1.54,27.56,2.56,41.57Z"/>
        <g>
          <rect class="cls-4" x="103.36" y="24.98" width="1.82" height="19.06" rx=".91" ry=".91"/>
          <g>
            <g>
              <path class="cls-5" d="M106.28,15.45s.6-2.06,1.56-2.46,2.02.19,3.25,1.43-1.31,3.25-1.31,3.25l-3.5-2.22Z"/>
              <circle class="cls-10" cx="105.29" cy="20.87" r="6.94"/>
              <path d="M102.71,24.62c2.1.79,4.45-.32,5.26-2.47s-.23-4.54-2.33-5.33c-1.08-.41-2.23-.31-3.2.18.12,0,.24.03.35.08.75.3,1.04,1.34.64,2.32-.39.98-1.32,1.54-2.06,1.24-.62-.25-.92-1.01-.79-1.82-.08.15-.15.31-.21.47-.81,2.15.23,4.54,2.33,5.33Z"/>
              <path class="cls-9" d="M110.13,13.46s.93-1.93,2.29-1.91c2.26.02,1.15,3.41,4.42,3.57"/>
              <g>
                <path class="cls-15" d="M114.46,19.06s1.95-1.99,2.48-1.91,1.56,2.76,1.56,2.76c0,0,.1-2.99.57-3.19s3.28,1.1,3.28,1.1c0,0-2.39-1.9-2.17-2.47s2.31-1.95,2.31-1.95c0,0-2.51.92-2.69.47s1.34-3.1,1.34-3.1l-2.42,2.45-1.01-2.89-.27,3.37-3.06-1.04,1.96,1.96-2.86.56s2.04.27,2.31.98-1.33,2.91-1.33,2.91Z"/>
                <path class="cls-13" d="M115.21,18.31s1.55-1.58,1.97-1.52,1.24,2.19,1.24,2.19c0,0,.08-2.38.46-2.53s2.61.88,2.61.88c0,0-1.9-1.51-1.73-1.96s1.84-1.55,1.84-1.55c0,0-2,.74-2.14.37s1.06-2.47,1.06-2.47l-1.93,1.94-.8-2.3-.21,2.68-2.44-.83,1.55,1.56-2.27.44s1.62.21,1.84.78-1.06,2.31-1.06,2.31Z"/>
                <path class="cls-14" d="M116.49,16.72s.56-.78.47-1.03-.88-.58-.88-.58c0,0,1.14.04,1.13-.14s-.74-.92-.74-.92c0,0,1.12.5,1.29.36s.35-1.03.35-1.03l.33.96,1.01-1.14s-.61,1.37-.31,1.37.81-.1.81-.1c0,0-.81.55-.64.83s.65.87.65.87c0,0-1.17-.49-1.35-.29s-.37,1.41-.37,1.41c0,0-.15-1.08-.56-1.15s-1.18.57-1.18.57Z"/>
              </g>
            </g>
            <g>
              <path class="cls-3" d="M106.92,25.17s.44.77.37.93-1-.23-1.43-.61"/>
              <path class="cls-3" d="M104.82,25.97c-1.22,1.63-1.15,1.28-1.34-.47l1.32.11"/>
              <path class="cls-3" d="M103.11,25.41c-1.03,1.01-1.73,1.99-1.3-.47"/>
              <path class="cls-3" d="M101.38,24.57c-1.37.92-2.04,1.16-1.06-.81"/>
              <path class="cls-6" d="M104.8,25.61c-.63,2.58,3.55,7.64,6.79,4.8.56-.5,1.29-1.46.87-2.25-1.46-2.35-4.97.79-6.6-2.67l-1.07.12Z"/>
              <path class="cls-8" d="M105.26,25.66s.99,3.6,3.83,3.38"/>
              <path class="cls-7" d="M106.81,25.01s-3.82,2.01-6.82-1.75"/>
              <g>
                <line class="cls-7" x1="113.74" y1="29.01" x2="115" y2="28.98"/>
                <line class="cls-7" x1="113.56" y1="28" x2="114.34" y2="27.49"/>
                <line class="cls-7" x1="112.95" y1="27.09" x2="113.19" y2="26.68"/>
                <line class="cls-7" x1="113.4" y1="29.9" x2="114.08" y2="30.5"/>
                <line class="cls-7" x1="112.67" y1="30.73" x2="112.9" y2="31.08"/>
              </g>
            </g>
          </g>
        </g>
        <g>
          <rect class="cls-4" x="72.51" y="14.64" width="1.82" height="19.06" rx=".91" ry=".91"/>
          <g>
            <g>
              <path class="cls-5" d="M75.43,5.12s.6-2.06,1.56-2.46,2.02.19,3.25,1.43-1.31,3.25-1.31,3.25l-3.5-2.22Z"/>
              <circle class="cls-10" cx="74.44" cy="10.54" r="6.94"/>
              <path d="M71.86,14.29c2.1.79,4.45-.32,5.26-2.47s-.23-4.54-2.33-5.33c-1.08-.41-2.23-.31-3.2.18.12,0,.24.03.35.08.75.3,1.04,1.34.64,2.32-.39.98-1.32,1.54-2.06,1.24-.62-.25-.92-1.01-.79-1.82-.08.15-.15.31-.21.47-.81,2.15.23,4.54,2.33,5.33Z"/>
              <path class="cls-9" d="M79.28,3.13s.93-1.93,2.29-1.91c2.26.02,1.15,3.41,4.42,3.57"/>
              <g>
                <path class="cls-15" d="M83.61,8.73s1.95-1.99,2.48-1.91,1.56,2.76,1.56,2.76c0,0,.1-2.99.57-3.19s3.28,1.1,3.28,1.1c0,0-2.39-1.9-2.17-2.47s2.31-1.95,2.31-1.95c0,0-2.51.92-2.69.47s1.34-3.1,1.34-3.1l-2.42,2.45-1.01-2.89-.27,3.37-3.06-1.04,1.96,1.96-2.86.56s2.04.27,2.31.98-1.33,2.91-1.33,2.91Z"/>
                <path class="cls-13" d="M84.37,7.98s1.55-1.58,1.97-1.52,1.24,2.19,1.24,2.19c0,0,.08-2.38.46-2.53s2.61.88,2.61.88c0,0-1.9-1.51-1.73-1.96s1.84-1.55,1.84-1.55c0,0-2,.74-2.14.37s1.06-2.47,1.06-2.47l-1.93,1.94-.8-2.3-.21,2.68-2.44-.83,1.55,1.56-2.27.44s1.62.21,1.84.78-1.06,2.31-1.06,2.31Z"/>
                <path class="cls-14" d="M85.64,6.39s.56-.78.47-1.03-.88-.58-.88-.58c0,0,1.14.04,1.13-.14s-.74-.92-.74-.92c0,0,1.12.5,1.29.36s.35-1.03.35-1.03l.33.96,1.01-1.14s-.61,1.37-.31,1.37.81-.1.81-.1c0,0-.81.55-.64.83s.65.87.65.87c0,0-1.17-.49-1.35-.29s-.37,1.41-.37,1.41c0,0-.15-1.08-.56-1.15s-1.18.57-1.18.57Z"/>
              </g>
            </g>
            <g>
              <path class="cls-3" d="M76.07,14.84s.44.77.37.93-1-.23-1.43-.61"/>
              <path class="cls-3" d="M73.97,15.64c-1.22,1.63-1.15,1.28-1.34-.47l1.32.11"/>
              <path class="cls-3" d="M72.26,15.08c-1.03,1.01-1.73,1.99-1.3-.47"/>
              <path class="cls-3" d="M70.54,14.24c-1.37.92-2.04,1.16-1.06-.81"/>
              <path class="cls-6" d="M73.95,15.28c-.63,2.58,3.55,7.64,6.79,4.8.56-.5,1.29-1.46.87-2.25-1.46-2.35-4.97.79-6.6-2.67l-1.07.12Z"/>
              <path class="cls-8" d="M74.42,15.33s.99,3.6,3.83,3.38"/>
              <path class="cls-7" d="M75.97,14.68s-3.82,2.01-6.82-1.75"/>
              <g>
                <line class="cls-7" x1="82.9" y1="18.68" x2="84.16" y2="18.65"/>
                <line class="cls-7" x1="82.71" y1="17.67" x2="83.49" y2="17.16"/>
                <line class="cls-7" x1="82.1" y1="16.76" x2="82.34" y2="16.35"/>
                <line class="cls-7" x1="82.55" y1="19.57" x2="83.23" y2="20.17"/>
                <line class="cls-7" x1="81.82" y1="20.4" x2="82.05" y2="20.75"/>
              </g>
            </g>
          </g>
        </g>
        <g>
          <rect class="cls-4" x="42.6" y="29.6" width="1.82" height="19.06" rx=".91" ry=".91"/>
          <g>
            <g>
              <path class="cls-5" d="M45.52,20.08s.6-2.06,1.56-2.46,2.02.19,3.25,1.43-1.31,3.25-1.31,3.25l-3.5-2.22Z"/>
              <circle class="cls-10" cx="44.52" cy="25.5" r="6.94"/>
              <path d="M41.94,29.25c2.1.79,4.45-.32,5.26-2.47s-.23-4.54-2.33-5.33c-1.08-.41-2.23-.31-3.2.18.12,0,.24.03.35.08.75.3,1.04,1.34.64,2.32-.39.98-1.32,1.54-2.06,1.24-.62-.25-.92-1.01-.79-1.82-.08.15-.15.31-.21.47-.81,2.15.23,4.54,2.33,5.33Z"/>
              <path class="cls-9" d="M49.37,18.09s.93-1.93,2.29-1.91c2.26.02,1.15,3.41,4.42,3.57"/>
              <g>
                <path class="cls-15" d="M53.7,23.69s1.95-1.99,2.48-1.91,1.56,2.76,1.56,2.76c0,0,.1-2.99.57-3.19s3.28,1.1,3.28,1.1c0,0-2.39-1.9-2.17-2.47s2.31-1.95,2.31-1.95c0,0-2.51.92-2.69.47s1.34-3.1,1.34-3.1l-2.42,2.45-1.01-2.89-.27,3.37-3.06-1.04,1.96,1.96-2.86.56s2.04.27,2.31.98-1.33,2.91-1.33,2.91Z"/>
                <path class="cls-13" d="M54.45,22.93s1.55-1.58,1.97-1.52,1.24,2.19,1.24,2.19c0,0,.08-2.38.46-2.53s2.61.88,2.61.88c0,0-1.9-1.51-1.73-1.96s1.84-1.55,1.84-1.55c0,0-2,.74-2.14.37s1.06-2.47,1.06-2.47l-1.93,1.94-.8-2.3-.21,2.68-2.44-.83,1.55,1.56-2.27.44s1.62.21,1.84.78-1.06,2.31-1.06,2.31Z"/>
                <path class="cls-14" d="M55.73,21.35s.56-.78.47-1.03-.88-.58-.88-.58c0,0,1.14.04,1.13-.14s-.74-.92-.74-.92c0,0,1.12.5,1.29.36s.35-1.03.35-1.03l.33.96,1.01-1.14s-.61,1.37-.31,1.37.81-.1.81-.1c0,0-.81.55-.64.83s.65.87.65.87c0,0-1.17-.49-1.35-.29s-.37,1.41-.37,1.41c0,0-.15-1.08-.56-1.15s-1.18.57-1.18.57Z"/>
              </g>
            </g>
            <g>
              <path class="cls-3" d="M46.15,29.8s.44.77.37.93-1-.23-1.43-.61"/>
              <path class="cls-3" d="M44.06,30.6c-1.22,1.63-1.15,1.28-1.34-.47l1.32.11"/>
              <path class="cls-3" d="M42.34,30.04c-1.03,1.01-1.73,1.99-1.3-.47"/>
              <path class="cls-3" d="M40.62,29.2c-1.37.92-2.04,1.16-1.06-.81"/>
              <path class="cls-6" d="M44.03,30.24c-.63,2.58,3.55,7.64,6.79,4.8.56-.5,1.29-1.46.87-2.25-1.46-2.35-4.97.79-6.6-2.67l-1.07.12Z"/>
              <path class="cls-8" d="M44.5,30.29s.99,3.6,3.83,3.38"/>
              <path class="cls-7" d="M46.05,29.64s-3.82,2.01-6.82-1.75"/>
              <g>
                <line class="cls-7" x1="52.98" y1="33.64" x2="54.24" y2="33.61"/>
                <line class="cls-7" x1="52.8" y1="32.63" x2="53.58" y2="32.12"/>
                <line class="cls-7" x1="52.18" y1="31.71" x2="52.42" y2="31.31"/>
                <line class="cls-7" x1="52.63" y1="34.53" x2="53.32" y2="35.13"/>
                <line class="cls-7" x1="51.9" y1="35.35" x2="52.14" y2="35.71"/>
              </g>
            </g>
          </g>
        </g>
      </g>
    </g>
  </g>
</svg>