<?xml version="1.0" encoding="UTF-8"?>
<svg id="Layer_1" data-name="Layer 1" xmlns="http://www.w3.org/2000/svg" viewBox="0 0 101.88 87.45">
  <defs>
    <style>
      .cls-1 {
        fill: none;
        stroke-width: 4.35px;
      }

      .cls-1, .cls-2 {
        stroke: #000;
        stroke-linecap: round;
        stroke-linejoin: round;
      }

      .cls-2 {
        fill: #ff1b27;
        stroke-width: 4.88px;
      }
    </style>
  </defs>
  <path class="cls-2" d="M51.55,31.96s11.99-23.98,29.17-9.41c16.28,13.81-8.32,42.89-29.56,50.59h-.42C29.5,65.44,2.98,39.16,21.17,22.55c17.46-15.94,30.38,9.41,30.38,9.41Z"/>
  <g>
    <line class="cls-1" x1="88.27" y1="15.57" x2="91.84" y2="12.2"/>
    <line class="cls-1" x1="79.57" y1="11.23" x2="82.5" y2="2.64"/>
    <line class="cls-1" x1="69.06" y1="10.02" x2="68.8" y2="2.88"/>
    <line class="cls-1" x1="59.03" y1="13.77" x2="56.81" y2="9.53"/>
    <line class="cls-1" x1="93.66" y1="23.86" x2="99.71" y2="21.65"/>
    <line class="cls-1" x1="94.46" y1="32.69" x2="98.52" y2="33.82"/>
    <line class="cls-1" x1="91.46" y1="42.79" x2="97.18" y2="46.21"/>
  </g>
  <line class="cls-1" x1="15.48" y1="15.35" x2="12.32" y2="11.59"/>
  <line class="cls-1" x1="24.3" y1="11.04" x2="22.36" y2="2.18"/>
  <line class="cls-1" x1="34.87" y1="9.42" x2="35.95" y2="2.36"/>
  <line class="cls-1" x1="45.71" y1="14.6" x2="48.4" y2="10.64"/>
  <line class="cls-1" x1="9.51" y1="22.65" x2="3.76" y2="19.76"/>
  <line class="cls-1" x1="7.4" y1="31.33" x2="3.23" y2="31.99"/>
  <line class="cls-1" x1="8.26" y1="41.7" x2="2.18" y2="44.46"/>
  <line class="cls-1" x1="19.93" y1="60.99" x2="15.42" y2="65.63"/>
  <line class="cls-1" x1="12.4" y1="51.93" x2="10.07" y2="54.11"/>
  <line class="cls-1" x1="81.94" y1="60.27" x2="86.61" y2="64.76"/>
  <line class="cls-1" x1="88.45" y1="52.61" x2="90.95" y2="54.6"/>
  <line class="cls-1" x1="74.6" y1="68.99" x2="76.07" y2="70.88"/>
  <line class="cls-1" x1="64.1" y1="76.8" x2="65.95" y2="79.4"/>
  <line class="cls-1" x1="51.44" y1="80.47" x2="51.34" y2="85.28"/>
  <line class="cls-1" x1="26.19" y1="71.97" x2="28.22" y2="69.5"/>
  <line class="cls-1" x1="37.53" y1="79.51" x2="38.79" y2="76.59"/>
</svg>