<?xml version="1.0" encoding="UTF-8"?>
<svg id="Layer_3" xmlns="http://www.w3.org/2000/svg" version="1.1" viewBox="0 0 841.89 800.55">
  <!-- Generator: Adobe Illustrator 29.0.0, SVG Export Plug-In . SVG Version: 2.1.0 Build 186)  -->
  <defs>
    <style>
      .st0, .st1, .st2 {
        fill: none;
      }

      .st0, .st1, .st2, .st3, .st4, .st5 {
        stroke: #000;
        stroke-linecap: round;
        stroke-linejoin: round;
      }

      .st0, .st5 {
        stroke-width: 23.71px;
      }

      .st1 {
        stroke-width: 23px;
      }

      .st2 {
        stroke-width: 18px;
      }

      .st3 {
        fill: #fff;
        stroke-width: 10.54px;
      }

      .st4 {
        fill: #ff042c;
        stroke-width: 20px;
      }

      .st5 {
        fill: #f7931a;
      }
    </style>
  </defs>
  <path class="st5" d="M272.41,510.14s24.79-212.21,51.57-274.69c0,0-32.72-3.97-36.69-17.85-3.97-13.88,16.86-75.37,16.86-75.37,100.03,28.71,68.47,42.53,92.22-54.54l70.41,10.91-14.38,76.11s43.14,15.37,58.01,13.39l17.85-80.32,73.63,11.16s-6.45,50.33-22.31,78.09c156.82-7.47,205.04,227.99-78.09,200.81,132.83-7.79,314.03,222.2-4.46,236.51l-17.85,91.48c-82.58,19.93-72.09-51.52-55.78-93.71l-64.71-13.39-17.85,82.56c-85.4,16.29-66.11-76.35-57.52-111.81,0,0-69.17-9.17-78.09-25.04,0,0,4.96-52.56,12.89-68.42l54.29,14.13Z"/>
  <path class="st3" d="M360.67,353.46s-27.77,5.95-29.75,10.91c-1.98,4.96,26.77,18.84,44.62,20.82"/>
  <path class="st3" d="M386.45,419.9c-12.68,63.61-5.6,54.41,39.67,21.82l-30.74-28.76"/>
  <path class="st3" d="M436.04,448.66c-1.96,45.61-10.17,83.14,38.67,20.82"/>
  <path class="st3" d="M492.56,471.47c7.5,51.91,16.06,72.97,41.65,7.93"/>
  <g>
    <path class="st0" d="M448.93,334.62s41.65-71.4,89.25-74.37"/>
    <line class="st0" x1="448.93" y1="246.36" x2="515.37" y2="316.77"/>
  </g>
  <path class="st4" d="M395.38,412.96c-47.6,69.83-255.92,78.48-257.83-58.52-.18-23.81,6.94-61.47,34.71-68.42,86.74-15.45,86.95,134.39,203.29,99.17l19.83,27.77Z"/>
  <path class="st2" d="M384.34,402.87s-106.16,53.08-161.51-18.66"/>
  <path class="st1" d="M366.62,352.47s33.72,132.88,186.43,123.96"/>
  <g>
    <line class="st1" x1="124.77" y1="273.73" x2="98.73" y2="243.28"/>
    <line class="st1" x1="152.56" y1="256.52" x2="148.14" y2="227.18"/>
    <line class="st1" x1="187.31" y1="251.61" x2="191.75" y2="237.34"/>
    <line class="st1" x1="111.11" y1="300.77" x2="82.36" y2="297.43"/>
    <line class="st1" x1="107.22" y1="335.62" x2="93.82" y2="337.6"/>
  </g>
</svg>