<?xml version="1.0" encoding="UTF-8"?>
<svg id="Layer_1" data-name="Layer 1" xmlns="http://www.w3.org/2000/svg" viewBox="0 0 166.84 166.84">
  <defs>
    <style>
      .cls-1, .cls-2 {
        fill: none;
      }

      .cls-2 {
        stroke-width: 4.35px;
      }

      .cls-2, .cls-3 {
        stroke: #000;
        stroke-linecap: round;
        stroke-linejoin: round;
      }

      .cls-3 {
        fill: #ff1b27;
        stroke-width: 4.88px;
      }
    </style>
  </defs>
  <rect class="cls-1" width="166.84" height="166.84"/>
  <g>
    <path class="cls-3" d="M87.63,77.45s11.99-23.98,29.17-9.41c16.28,13.81-8.32,42.89-29.56,50.59h-.42c-21.24-7.71-47.75-33.99-29.56-50.59,17.46-15.94,30.38,9.41,30.38,9.41Z"/>
    <g>
      <line class="cls-2" x1="124.35" y1="61.06" x2="127.92" y2="57.69"/>
      <line class="cls-2" x1="115.65" y1="56.72" x2="118.58" y2="48.13"/>
      <line class="cls-2" x1="105.14" y1="55.51" x2="104.88" y2="48.38"/>
      <line class="cls-2" x1="95.11" y1="59.26" x2="92.89" y2="55.02"/>
      <line class="cls-2" x1="129.74" y1="69.35" x2="135.78" y2="67.14"/>
      <line class="cls-2" x1="130.53" y1="78.19" x2="134.6" y2="79.32"/>
      <line class="cls-2" x1="127.54" y1="88.28" x2="133.26" y2="91.71"/>
    </g>
    <line class="cls-2" x1="51.56" y1="60.84" x2="48.4" y2="57.08"/>
    <line class="cls-2" x1="60.38" y1="56.54" x2="58.44" y2="47.67"/>
    <line class="cls-2" x1="70.95" y1="54.91" x2="72.02" y2="47.85"/>
    <line class="cls-2" x1="81.79" y1="60.1" x2="84.48" y2="56.13"/>
    <line class="cls-2" x1="45.59" y1="68.14" x2="39.83" y2="65.26"/>
    <line class="cls-2" x1="43.47" y1="76.82" x2="39.31" y2="77.48"/>
    <line class="cls-2" x1="44.33" y1="87.19" x2="38.26" y2="89.95"/>
    <line class="cls-2" x1="56.01" y1="106.48" x2="51.5" y2="111.13"/>
    <line class="cls-2" x1="48.48" y1="97.42" x2="46.15" y2="99.6"/>
    <line class="cls-2" x1="118.02" y1="105.76" x2="122.68" y2="110.25"/>
    <line class="cls-2" x1="124.53" y1="98.11" x2="127.03" y2="100.09"/>
    <line class="cls-2" x1="110.68" y1="114.48" x2="112.15" y2="116.38"/>
    <line class="cls-2" x1="100.17" y1="122.3" x2="102.03" y2="124.89"/>
    <line class="cls-2" x1="87.52" y1="125.97" x2="87.42" y2="130.77"/>
    <line class="cls-2" x1="62.27" y1="117.46" x2="64.29" y2="115"/>
    <line class="cls-2" x1="73.61" y1="125.01" x2="74.87" y2="122.08"/>
  </g>
</svg>