<?xml version="1.0" encoding="UTF-8"?>
<svg id="Layer_1" data-name="Layer 1" xmlns="http://www.w3.org/2000/svg" viewBox="0 0 166.84 166.84">
  <defs>
    <style>
      .cls-1, .cls-2, .cls-3, .cls-4 {
        fill: none;
      }

      .cls-2 {
        stroke-width: 2.49px;
      }

      .cls-2, .cls-3, .cls-4, .cls-5, .cls-6, .cls-7, .cls-8, .cls-9 {
        stroke-linecap: round;
        stroke-linejoin: round;
      }

      .cls-2, .cls-3, .cls-4, .cls-6, .cls-7, .cls-8, .cls-9 {
        stroke: #000;
      }

      .cls-3 {
        stroke-width: 3.18px;
      }

      .cls-4, .cls-8 {
        stroke-width: 3.27px;
      }

      .cls-5 {
        stroke: #fff;
        stroke-width: 1.32px;
      }

      .cls-5, .cls-9 {
        fill: #fff;
      }

      .cls-6 {
        fill: #77be43;
        stroke-width: 3.95px;
      }

      .cls-7 {
        fill: #ff042c;
        stroke-width: 2.76px;
      }

      .cls-8 {
        fill: #f7931a;
      }

      .cls-9 {
        stroke-width: 1.45px;
      }
    </style>
  </defs>
  <rect class="cls-1" width="166.84" height="166.84"/>
  <g>
    <circle class="cls-6" cx="52.84" cy="55.91" r="24.77"/>
    <g>
      <path class="cls-5" d="M44.56,48.02c6.36,1.4,12.69,2.79,19.03,4.18l.58-2.63c-6.36-1.4-12.69-2.79-19.03-4.18l-.58,2.63ZM41.51,61.94c6.36,1.4,12.69,2.79,19.02,4.18l.58-2.63c-6.35-1.39-12.67-2.78-19.02-4.18l-.58,2.63ZM62.61,56.63c-6.35-1.39-12.67-2.78-19.02-4.18l-.57,2.62c6.35,1.39,12.67,2.78,19.02,4.18l.57-2.62ZM56.84,43.72l1-4.56-2.61-.57-1,4.56,2.61.57ZM50.37,73.23l1-4.56-2.61-.57-1,4.56,2.61.57Z"/>
      <path class="cls-5" d="M44.56,48.02l.58-2.63c6.34,1.39,12.67,2.78,19.03,4.18l-.58,2.63c-6.34-1.39-12.67-2.78-19.03-4.18Z"/>
      <path class="cls-5" d="M41.51,61.94l.58-2.63c6.35,1.39,12.67,2.78,19.02,4.18l-.58,2.63c-6.33-1.39-12.66-2.78-19.02-4.18Z"/>
      <path class="cls-5" d="M62.61,56.63l-.57,2.62c-6.35-1.39-12.67-2.78-19.02-4.18l.57-2.62c6.35,1.39,12.67,2.78,19.02,4.18Z"/>
      <path class="cls-5" d="M56.84,43.72l-2.61-.57,1-4.56,2.61.57-1,4.56Z"/>
      <path class="cls-5" d="M50.37,73.23l-2.61-.57,1-4.56,2.61.57-1,4.56Z"/>
    </g>
    <g>
      <path class="cls-8" d="M70.02,105.8s3.42-29.3,7.12-37.93c0,0-4.52-.55-5.07-2.46s2.33-10.41,2.33-10.41c13.81,3.96,9.45,5.87,12.73-7.53l9.72,1.51-1.99,10.51s5.96,2.12,8.01,1.85l2.46-11.09,10.17,1.54s-.89,6.95-3.08,10.78c21.65-1.03,28.31,31.48-10.78,27.73,18.34-1.08,43.36,30.68-.62,32.66l-2.46,12.63c-11.4,2.75-9.95-7.11-7.7-12.94l-8.93-1.85-2.46,11.4c-11.79,2.25-9.13-10.54-7.94-15.44,0,0-9.55-1.27-10.78-3.46,0,0,.68-7.26,1.78-9.45l7.5,1.95Z"/>
      <path class="cls-9" d="M82.21,84.16s-3.83.82-4.11,1.51,3.7,2.6,6.16,2.88"/>
      <path class="cls-9" d="M85.77,93.34c-1.75,8.78-.77,7.51,5.48,3.01l-4.24-3.97"/>
      <path class="cls-9" d="M92.62,97.31c-.27,6.3-1.4,11.48,5.34,2.88"/>
      <path class="cls-9" d="M100.42,100.46c1.04,7.17,2.22,10.08,5.75,1.1"/>
      <g>
        <path class="cls-4" d="M94.4,81.56s5.75-9.86,12.32-10.27"/>
        <line class="cls-4" x1="94.4" y1="69.38" x2="103.57" y2="79.1"/>
      </g>
      <path class="cls-7" d="M87,92.38c-6.57,9.64-35.34,10.84-35.6-8.08-.03-3.29.96-8.49,4.79-9.45,11.98-2.13,12.01,18.56,28.07,13.69l2.74,3.83Z"/>
      <path class="cls-2" d="M85.48,90.99s-14.66,7.33-22.3-2.58"/>
      <path class="cls-3" d="M83.03,84.03s4.66,18.35,25.74,17.12"/>
    </g>
  </g>
</svg>